<svg id="Capa_1" enable-background="new 0 0 512 512" height="512" viewBox="0 0 512 512" width="512" xmlns="http://www.w3.org/2000/svg"><g><path d="m257.545 378.491c72.734 0 132.005-58.705 132.943-131.221 29.885-9.967 51.498-38.181 51.498-71.362 0-11.813-2.665-23.116-7.909-33.569-8.777-17.619-26.315-42.358-41.789-64.187-6.416-9.05-12.476-17.599-17.25-24.714-1.856-2.769-4.971-4.429-8.304-4.429s-6.447 1.66-8.304 4.429c-4.773 7.113-10.828 15.659-17.239 24.706-5.628 7.942-11.525 16.268-17.179 24.498-8.499-12.228-17.145-24.425-25.575-36.318-12.107-17.079-23.543-33.211-32.584-46.699-1.856-2.77-4.972-4.432-8.307-4.432-3.334 0-6.449 1.662-8.306 4.432-9.113 13.592-20.64 29.856-32.844 47.075-28.897 40.773-61.649 86.987-77.866 119.482-9.257 18.545-13.95 38.511-13.95 59.344 0 73.318 59.648 132.965 132.965 132.965zm99.964-288.783c3.197-4.512 6.306-8.898 9.226-13.066 2.923 4.171 6.036 8.562 9.237 13.077 15.054 21.236 32.116 45.305 40.216 61.562 3.847 7.67 5.798 15.955 5.798 24.627 0 30.451-24.786 55.225-55.252 55.225-30.45 0-55.224-24.773-55.224-55.225 0-8.659 1.945-16.953 5.777-24.643 8.111-16.241 25.171-40.316 40.222-61.557zm-201.084 105.406c15.53-31.118 47.809-76.665 76.289-116.85 8.836-12.467 17.32-24.438 24.831-35.314 7.438 10.768 15.832 22.609 24.574 34.94 9.901 13.967 20.082 28.353 29.956 42.668-5.045 7.886-9.456 15.313-12.684 21.778-5.229 10.493-7.881 21.788-7.881 33.571 0 41.479 33.745 75.225 75.224 75.225 1.221 0 2.433-.035 3.64-.092-2.886 59.738-52.388 107.451-112.829 107.451-62.289 0-112.965-50.676-112.965-112.965 0-17.705 3.985-34.666 11.845-50.412z"/><path d="m61 381.983c0 41.774 98.09 63.631 194.985 63.631 96.896 0 194.986-21.856 194.986-63.631 0-18.861-20.023-34.94-57.905-46.499-5.287-1.61-10.872 1.363-12.483 6.646-1.612 5.283 1.363 10.872 6.646 12.483 30.218 9.221 43.743 20.391 43.743 27.37 0 7.318-14.522 18.913-46.968 28.318-34.06 9.875-79.524 15.312-128.018 15.312s-93.958-5.438-128.018-15.312c-32.445-9.405-46.968-20.999-46.968-28.318 0-6.981 13.534-18.151 43.769-27.369 5.283-1.61 8.26-7.198 6.649-12.481s-7.201-8.259-12.481-6.649c-37.902 11.554-57.937 27.634-57.937 46.499z"/><path d="m423.93 293.623c-5.157-1.984-10.941.584-12.927 5.737-1.984 5.154.584 10.941 5.737 12.927 47.829 18.422 75.26 43.608 75.26 69.101 0 23.56-24.056 47.379-65.997 65.352-45.251 19.389-105.631 30.067-170.017 30.067-64.385 0-124.759-10.678-170.002-30.067-41.934-17.972-65.984-41.792-65.984-65.352 0-25.503 27.43-50.688 75.257-69.101 5.154-1.983 7.724-7.771 5.74-12.925-1.985-5.154-7.772-7.727-12.925-5.739-56.794 21.863-88.072 53.032-88.072 87.765 0 32.411 27.738 62.149 78.105 83.734 47.676 20.433 110.848 31.685 177.88 31.685 67.034 0 130.21-11.252 177.894-31.685 50.377-21.586 78.12-51.323 78.12-83.734.001-34.72-31.276-65.889-88.069-87.765z"/></g></svg>