<svg id="Layer_1" viewBox="0 0 24 24" xmlns="http://www.w3.org/2000/svg" data-name="Layer 1"><path d="m11 6.998c0 .552-.448 1-1 1s-1-.448-1-1 .448-1 1-1 1 .448 1 1zm3 2c.552 0 1-.448 1-1s-.448-1-1-1-1 .448-1 1 .448 1 1 1zm9 3.23v3.27c0 4.136-3.364 7.5-7.5 7.5h-7c-4.136 0-7.5-3.364-7.5-7.5v-3.27c0-.425.268-.803.668-.943.056-.02.589-.203 1.574-.425-.128-.503-.242-1.143-.242-1.862 0-1.76.674-2.862 2.007-3.289.095-2.131 1.27-3.211 3.493-3.211.145 0 .284.004.418.013.526-1.005 1.559-1.513 3.082-1.513s2.556.508 3.082 1.513c.134-.009.273-.013.418-.013 2.224 0 3.398 1.08 3.493 3.211 1.333.427 2.007 1.529 2.007 3.289 0 .718-.115 1.359-.242 1.862.985.222 1.519.406 1.574.425.4.141.668.519.668.943zm-17.79-1.739c1.688-.264 3.96-.491 6.79-.491s5.102.228 6.79.491c.104-.379.21-.904.21-1.491 0-1.25-.34-1.41-1.116-1.478-.541-.037-.972-.557-.908-1.096.014-.135.024-.273.024-.427 0-1.233-.267-1.5-1.5-1.5-.323 0-.599.031-.818.092-.538.164-1.151-.214-1.248-.77-.083-.423-.162-.822-1.434-.822s-1.351.399-1.434.822c-.098.555-.71.935-1.248.77-.22-.061-.495-.092-.818-.092-1.233 0-1.5.267-1.5 1.5 0 .153.011.292.024.427.064.539-.367 1.059-.908 1.096-.776.067-1.116.228-1.116 1.478 0 .587.105 1.113.21 1.491zm15.79 2.49c-1.279-.334-4.361-.981-9-.981s-7.721.647-9 .981v2.519c0 3.032 2.468 5.5 5.5 5.5h7c3.032 0 5.5-2.468 5.5-5.5z"/></svg>