<svg id="Capa_1" enable-background="new 0 0 512 512" height="512" viewBox="0 0 512 512" width="512" xmlns="http://www.w3.org/2000/svg"><g><g id="Page-1_57_"><g id="_x30_58---Protein-Measuring-Cup"><path id="Path_140_" clip-rule="evenodd" d="m131.558 393.466c-13.559-2.978-26.257-9.021-37.12-17.664-2.509-2.201-4.262-5.135-5.009-8.388l-17.425-69.769c-.68-3.02-2.942-5.436-5.911-6.311-2.969-.876-6.18-.075-8.39 2.093s-3.072 5.363-2.254 8.348l17.434 69.751c1.603 6.71 5.278 12.744 10.505 17.246 12.833 10.331 27.864 17.582 43.938 21.197.695.176 1.408.264 2.125.265 4.302 0 7.931-3.203 8.466-7.471s-2.19-8.268-6.359-9.331z" fill-rule="evenodd"/><path id="Shape_184_" d="m477.867 185.5h-141.816c-17.578-11.047-36.967-18.907-57.276-23.219-2.688-2.637-5.376-5.291-7.962-8.158-5.637-6.882-9.25-15.196-10.436-24.013-2.084-11.305-8.158-21.486-17.118-28.689-7.825-5.281-16.477-9.218-25.6-11.648-2.722-.853-5.453-1.758-8.192-2.765-4.706-2.135-8.928-5.207-12.407-9.028-3.438-3.428-7.199-6.518-11.23-9.225-18.577-11.861-41.617-7.953-58.59 9.941-6.399 6.503-13.242 12.554-20.48 18.108-6.788 5.278-13.293 10.91-19.49 16.87-7.628 8.413-12.838 18.733-15.078 29.867-1.468 5.18-2.697 10.385-3.925 15.573-.538 2.27-1.101 4.523-1.655 6.784-42.975 12.699-66.612 31.677-66.612 53.736.025 4.63 1.077 9.197 3.081 13.372l36.693 146.824c3.322 13.662 10.871 25.927 21.572 35.046 18.748 16.043 54.391 35.157 117.854 35.157s99.106-19.115 117.811-35.123c10.727-9.124 18.295-21.406 21.623-35.089l31.488-126.054h127.744c18.851 0 34.133-15.282 34.133-34.133s-15.281-34.134-34.132-34.134zm-157.978 58.206-10.547-42.249c-1.256-4.935-3.374-9.609-6.255-13.807 23.893 9.31 38.246 20.89 38.246 31.983 0 7.86-7.748 16.385-21.444 24.073zm-237.909-68.855c1.024-3.908 1.954-7.851 2.884-11.802 1.186-4.983 2.372-9.984 3.755-14.993 1.519-8.243 5.2-15.935 10.667-22.289 5.771-5.532 11.826-10.759 18.142-15.659 7.845-6.035 15.258-12.61 22.187-19.678 4.267-4.506 19.627-18.381 37.043-7.27 3.11 2.139 6.015 4.561 8.678 7.236 5.122 5.472 11.35 9.792 18.27 12.672 2.876 1.058 5.811 2.005 8.755 2.961 7.342 1.899 14.328 4.977 20.685 9.114 5.764 4.785 9.569 11.521 10.692 18.927 1.814 11.651 6.807 22.576 14.43 31.573 3.285 3.644 6.733 7.1 10.069 10.334s6.613 6.579 9.924 9.805c2.56 2.458 5.035 4.915 7.526 7.398 3.439 3.422 5.879 7.718 7.057 12.425l11.341 45.457c-40.092 14.081-82.404 20.78-124.885 19.772-52.582 0-100.924-8.422-131.977-22.724l3.166-5.538c3.328-5.811 6.673-11.631 9.924-17.425 8.559-13.9 15.325-28.827 20.139-44.425zm-21.18 10.863c-4.29 10.73-9.426 21.102-15.36 31.019-3.265 5.803-6.562 11.58-9.89 17.331l-3.311 5.803c-9.788-6.63-15.172-13.662-15.172-20.233 0-11.606 16.742-24.312 43.733-33.92zm241.28 189.969c-2.472 10.225-8.118 19.404-16.128 26.223-16.555 14.174-48.512 31.061-106.752 31.061s-90.197-16.887-106.795-31.095c-7.988-6.813-13.618-15.976-16.085-26.18l-29.824-119.365c1.562.947 2.978 1.911 4.719 2.859 32.725 17.979 88.055 28.714 147.985 28.714 54.545 0 105.037-8.738 138.505-23.962 4.871-2.176 9.6-4.658 14.157-7.433zm187.844-143.992c-3.189 3.213-7.531 5.017-12.058 5.009h-124.586c6.823-10.36 6.803-23.793-.051-34.133h124.638c6.896.008 13.11 4.166 15.748 10.538s1.182 13.706-3.691 18.586z"/><g clip-rule="evenodd" fill-rule="evenodd"><circle id="Oval_43_" cx="128" cy="142.834" r="8.533"/><circle id="Oval_42_" cx="110.933" cy="176.967" r="8.533"/><circle id="Oval_41_" cx="162.133" cy="108.7" r="8.533"/><circle id="Oval_40_" cx="213.333" cy="134.3" r="8.533"/><circle id="Oval_39_" cx="221.867" cy="168.434" r="8.533"/><circle id="Oval_38_" cx="256" cy="202.567" r="8.533"/><circle id="Oval_37_" cx="238.933" cy="236.7" r="8.533"/><circle id="Oval_36_" cx="170.667" cy="245.234" r="8.533"/><circle id="Oval_35_" cx="170.667" cy="176.967" r="8.533"/><circle id="Oval_34_" cx="204.8" cy="211.1" r="8.533"/><circle id="Oval_33_" cx="93.867" cy="236.7" r="8.533"/><circle id="Oval_32_" cx="136.533" cy="211.1" r="8.533"/></g></g></g></g></svg>