<svg id="Capa_1" enable-background="new 0 0 512 512" height="512" viewBox="0 0 512 512" width="512" xmlns="http://www.w3.org/2000/svg"><g><g><path d="m422.401 102.18c-.921 1.385-1.999 2.967-3.181 4.702-12.149 17.833-24.01 36.384-24.01 50.021 0 23.106 17.976 35.195 35.733 35.195 17.771 0 35.76-12.089 35.76-35.195 0-13.638-11.861-32.189-24.01-50.021-1.182-1.735-2.26-3.316-3.181-4.702-.011-.018-.023-.035-.035-.052-.895-1.321-3.612-5.336-8.529-5.336-.011 0-.021 0-.032 0-4.934.017-7.625 4.053-8.515 5.388zm8.555 14.116c7.162 10.522 20.747 30.764 20.747 40.607 0 13.951-10.427 20.195-20.761 20.195-10.32 0-20.733-6.245-20.733-20.195.001-9.844 13.586-30.086 20.747-40.607z"/><path d="m504.5 386.753c4.142 0 7.5-3.358 7.5-7.5v-61.654c0-7.012-5.717-12.716-12.744-12.716h-11.35v-22.813h3.328c6.949 0 12.602-5.653 12.602-12.602v-32.684c0-6.949-5.653-12.602-12.602-12.602h-116.671c-6.949 0-12.602 5.653-12.602 12.602v32.684c0 6.949 5.653 12.602 12.602 12.602h3.328v22.814h-11.35c-7.027 0-12.744 5.704-12.744 12.716v156.502c0 7.027 5.717 12.744 12.744 12.744h132.715c7.027 0 12.744-5.717 12.744-12.744v-60.237c0-4.142-3.358-7.5-7.5-7.5s-7.5 3.358-7.5 7.5v57.981h-128.203v-30.156h59.198c6.839 0 12.404-5.564 12.404-12.404v-66.842c0-6.839-5.564-12.404-12.404-12.404h-59.198v-30.156h128.203v59.37c0 4.142 3.358 7.499 7.5 7.499zm-79.102-21.713v61.649h-56.601v-61.649zm47.508-60.156h-80.015v-22.814h80.015zm-87.515-37.814h-8.431v-27.889h111.876v27.889h-8.431z"/><path d="m355.912 110.217 72.283-72.258c2.93-2.928 2.93-7.677.002-10.606-2.928-2.93-7.677-2.931-10.606-.002l-72.626 72.601c-4.249-2.493-9.109-3.827-14.182-3.827-7.505 0-14.548 2.91-19.83 8.192l-10.9 10.9c-1.388-.25-44.841.568-44.841.568-7.284.153-9.482.698-14.362 5.716-.424.436-35.686 35.713-35.686 35.713s-.001.001-.001.001-.001.001-.001.001l-52.119 52.121c-.001.001-.002.002-.003.003s-.002.002-.003.003l-46.838 46.839-6.898-6.9c-.014-.014-.028-.028-.043-.042-4.736-4.663-12.4-4.643-17.084.042l-18.595 18.596c-2.28 2.28-3.536 5.316-3.536 8.549s1.256 6.268 3.536 8.549l34.298 34.298-39.767 39.791-15.019-15.02c-9.849-9.849-25.873-9.849-35.721 0-9.82 9.821-9.825 25.828-.01 35.682.004.004.008.008.012.012l70.028 70.004c4.749 4.768 11.091 7.395 17.857 7.395 6.767 0 13.108-2.626 17.836-7.373 4.762-4.742 7.388-11.071 7.395-17.821.007-6.764-2.616-13.115-7.384-17.883l-15.022-15.023 39.768-39.791 34.253 34.254c2.284 2.321 5.34 3.599 8.603 3.599h.001c3.264 0 6.319-1.278 8.563-3.557l18.524-18.525c2.322-2.285 3.6-5.341 3.6-8.605s-1.278-6.321-3.557-8.562l-6.9-6.902 76.602-76.603c2.929-2.929 2.929-7.678 0-10.606-2.929-2.929-7.678-2.929-10.606 0l-24.459 24.46-21.898-21.906c-.062-.067-.117-.137-.182-.202-.064-.064-.134-.12-.2-.181l-51.246-51.265 15.459-15.459 15.885 15.886c1.464 1.465 3.384 2.197 5.303 2.197s3.839-.732 5.303-2.197c2.929-2.929 2.929-7.677 0-10.606l-15.885-15.886 15.461-15.462 15.9 15.879c1.464 1.462 3.382 2.193 5.3 2.193 1.921 0 3.842-.733 5.307-2.2 2.927-2.931 2.924-7.68-.007-10.606l-15.893-15.872 15.468-15.469 15.899 15.9c1.464 1.465 3.384 2.197 5.303 2.197s3.839-.732 5.303-2.197c2.929-2.929 2.929-7.677 0-10.606l-15.9-15.9s5.213-5.263 5.513-5.557c.744-.052 43.839-.94 44.157-.943.233.203 30.156 30.127 30.355 30.355-.003.323-.862 43.402-.918 44.161-.295.301-34.328 34.285-34.328 34.285-2.929 2.929-2.929 7.678 0 10.606 2.929 2.93 7.678 2.929 10.606 0 0 0 32.659-32.646 33.093-33.068 5.026-4.887 5.572-7.086 5.726-14.381 0 0 .79-43.421.543-44.808l10.896-10.896c9.776-9.779 10.809-25.031 3.115-35.975zm-253.415 314.45c1.931 1.932 2.994 4.51 2.991 7.262-.003 2.737-1.061 5.297-3.001 7.229-1.914 1.921-4.481 2.98-7.229 2.98s-5.315-1.059-7.241-2.992l-70.037-70.01c-3.984-4.007-3.987-10.503-.005-14.485 1.929-1.929 4.505-2.991 7.254-2.991s5.325 1.062 7.254 2.991zm-15.022-36.236-18.76-18.761 39.767-39.791 18.76 18.761zm93.231-7.538-66.923-66.925s0-.001-.001-.001c0 0-.001 0-.001-.001l-37.539-37.54 14.493-14.494 9.911 9.914c.079.086.152.177.235.26s.173.156.259.234l56.393 56.409c.034.035.062.072.096.107.034.034.072.063.106.096l37.449 37.46zm51.16-82.088-41.535 41.536-16.788-16.793 41.535-41.536zm-27.392-27.402-41.535 41.537-18.744-18.749 41.536-41.537zm-29.347-29.358-41.537 41.538-16.788-16.793 41.537-41.538zm167.062-106.461-9.212 9.212-20.654-20.636 9.236-9.236c2.45-2.45 5.726-3.799 9.224-3.799s6.774 1.349 9.224 3.799l2.183 2.183c5.094 5.094 5.093 13.383-.001 18.477z"/></g></g></svg>