<?xml version="1.0" encoding="UTF-8" standalone="no"?>
<!-- Created with Inkscape (http://www.inkscape.org/) -->

<svg
   version="1.1"
   id="svg297"
   xml:space="preserve"
   width="32"
   height="32"
   viewBox="0 0 32 32"
   xmlns="http://www.w3.org/2000/svg"
   xmlns:svg="http://www.w3.org/2000/svg"><defs
     id="defs301"><clipPath
       clipPathUnits="userSpaceOnUse"
       id="clipPath311"><path
         d="M 0,24 H 24 V 0 H 0 Z"
         id="path309" /></clipPath></defs><g
     id="g303"
     transform="matrix(1.3333333,0,0,-1.3333333,0,32)"><g
       id="g305"><g
         id="g307"
         clip-path="url(#clipPath311)"><g
           id="g313"
           transform="translate(4,7.5146)"><path
             d="m 0,0 v -3.515 h 3.515 c 1.591,0 3.117,0.633 4.242,1.758 l 6.072,6.071 c 1.562,1.562 1.562,4.095 0,5.657 l -0.344,0.343 c -1.562,1.562 -4.094,1.562 -5.656,0 L 1.757,4.243 C 0.632,3.118 0,1.591 0,0 Z"
             style="fill:none;stroke:#000000;stroke-width:2;stroke-linecap:round;stroke-linejoin:round;stroke-miterlimit:10;stroke-dasharray:none;stroke-opacity:1"
             id="path315" /></g><g
           id="g317"
           transform="translate(23,18)"><path
             d="M 0,0 -5,5"
             style="fill:none;stroke:#000000;stroke-width:2;stroke-linecap:round;stroke-linejoin:round;stroke-miterlimit:10;stroke-dasharray:none;stroke-opacity:1"
             id="path319" /></g><g
           id="g321"
           transform="translate(20,20)"><path
             d="M 0,0 -2,-2"
             style="fill:none;stroke:#000000;stroke-width:2;stroke-linecap:round;stroke-linejoin:round;stroke-miterlimit:10;stroke-dasharray:none;stroke-opacity:1"
             id="path323" /></g><g
           id="g325"
           transform="translate(1,1)"><path
             d="M 0,0 3.125,3.125"
             style="fill:none;stroke:#000000;stroke-width:2;stroke-linecap:round;stroke-linejoin:round;stroke-miterlimit:10;stroke-dasharray:none;stroke-opacity:1"
             id="path327" /></g><g
           id="g329"
           transform="translate(5.125,9.875)"><path
             d="M 0,0 1.875,-1.875"
             style="fill:none;stroke:#000000;stroke-width:2;stroke-linecap:round;stroke-linejoin:round;stroke-miterlimit:10;stroke-dasharray:none;stroke-opacity:1"
             id="path331" /></g><g
           id="g333"
           transform="translate(8.125,12.875)"><path
             d="M 0,0 1.875,-1.875"
             style="fill:none;stroke:#000000;stroke-width:2;stroke-linecap:round;stroke-linejoin:round;stroke-miterlimit:10;stroke-dasharray:none;stroke-opacity:1"
             id="path335" /></g><g
           id="g337"
           transform="translate(11.125,15.875)"><path
             d="M 0,0 1.875,-1.875"
             style="fill:none;stroke:#000000;stroke-width:2;stroke-linecap:round;stroke-linejoin:round;stroke-miterlimit:10;stroke-dasharray:none;stroke-opacity:1"
             id="path339" /></g></g></g></g></svg>
