<?xml version="1.0" encoding="UTF-8"?>
<svg xmlns="http://www.w3.org/2000/svg" id="Layer_1" data-name="Layer 1" viewBox="0 0 24 24">
  <path d="m23.5,9c.276,0,.5-.224.5-.5s-.224-.5-.5-.5h-1.5v-1.5c0-.169-.01-.336-.028-.5h1.528c.276,0,.5-.224.5-.5s-.224-.5-.5-.5h-1.757c-.453-1.277-1.466-2.29-2.743-2.743V.5c0-.276-.224-.5-.5-.5s-.5.224-.5.5v1.528c-.164-.018-.331-.028-.5-.028h-1.5V.5c0-.276-.224-.5-.5-.5s-.5.224-.5.5v1.5h-2.5V.5c0-.276-.224-.5-.5-.5s-.5.224-.5.5v1.5h-2.5V.5c0-.276-.224-.5-.5-.5s-.5.224-.5.5v1.5h-1.5c-.169,0-.336.01-.5.028V.5c0-.276-.224-.5-.5-.5s-.5.224-.5.5v1.757c-1.277.453-2.29,1.466-2.743,2.743H.5c-.276,0-.5.224-.5.5s.224.5.5.5h1.528c-.018.164-.028.331-.028.5v1.5H.5c-.276,0-.5.224-.5.5s.224.5.5.5h1.5v2.5H.5c-.276,0-.5.224-.5.5s.224.5.5.5h1.5v2.5H.5c-.276,0-.5.224-.5.5s.224.5.5.5h1.5v1.5c0,.169.01.336.028.5H.5c-.276,0-.5.224-.5.5s.224.5.5.5h1.757c.453,1.277,1.466,2.29,2.743,2.743v1.757c0,.276.224.5.5.5s.5-.224.5-.5v-1.528c.164.018.331.028.5.028h1.5v1.5c0,.276.224.5.5.5s.5-.224.5-.5v-1.5h2.5v1.5c0,.276.224.5.5.5s.5-.224.5-.5v-1.5h2.5v1.5c0,.276.224.5.5.5s.5-.224.5-.5v-1.5h1.5c.169,0,.336-.01.5-.028v1.528c0,.276.224.5.5.5s.5-.224.5-.5v-1.757c1.277-.453,2.29-1.466,2.743-2.743h1.757c.276,0,.5-.224.5-.5s-.224-.5-.5-.5h-1.528c.018-.164.028-.331.028-.5v-1.5h1.5c.276,0,.5-.224.5-.5s-.224-.5-.5-.5h-1.5v-2.5h1.5c.276,0,.5-.224.5-.5s-.224-.5-.5-.5h-1.5v-2.5h1.5Zm-6,12H6.5c-1.93,0-3.5-1.57-3.5-3.5V6.5c0-1.93,1.57-3.5,3.5-3.5h11c1.93,0,3.5,1.57,3.5,3.5v11c0,1.93-1.57,3.5-3.5,3.5Zm-.5-13.5v9c0,.276-.224.5-.5.5s-.5-.224-.5-.5V7.5c0-.276.224-.5.5-.5s.5.224.5.5Zm-5.162.872c-.215-.812-1.022-1.376-1.857-1.371-.782.029-1.497.605-1.698,1.363l-2.265,8c-.075.266.079.542.345.617.045.013.091.019.137.019.218,0,.418-.144.48-.364l.744-2.628s.001,0,.002,0h4.587l.703,2.622c.072.266.346.421.612.354.267-.072.425-.346.354-.613l-2.145-7.998Zm-3.83,4.636l1.24-4.38c.091-.345.423-.614.77-.627.378-.033.756.262.854.629l1.174,4.378h-4.038Z"/>
</svg>
