<?xml version="1.0" encoding="UTF-8"?>
<svg xmlns="http://www.w3.org/2000/svg" id="Layer_1" data-name="Layer 1" viewBox="0 0 24 24">
  <path d="m19,4.61v-2.11c0-1.378-1.121-2.5-2.5-2.5H7.5c-1.379,0-2.5,1.122-2.5,2.5v2.11c-1.777.913-3,2.759-3,4.89v10c0,2.481,2.019,4.5,4.5,4.5h11c2.481,0,4.5-2.019,4.5-4.5v-10c0-2.132-1.223-3.978-3-4.89ZM6,2.5c0-.827.673-1.5,1.5-1.5h9c.827,0,1.5.673,1.5,1.5v1.713c-.478-.136-.979-.213-1.5-.213H7.5c-.521,0-1.022.077-1.5.213v-1.713Zm-3,8.5h11.5c.275,0,.5.224.5.5v6c0,.276-.225.5-.5.5H3v-7Zm18,8.5c0,1.93-1.57,3.5-3.5,3.5H6.5c-1.93,0-3.5-1.57-3.5-3.5v-.5h11.5c.827,0,1.5-.673,1.5-1.5v-6c0-.827-.673-1.5-1.5-1.5H3v-.5c0-2.481,2.019-4.5,4.5-4.5h9c2.481,0,4.5,2.019,4.5,4.5v10Z"/>
</svg>
