<svg id="_x3C_Layer_x3E_" height="512" viewBox="0 0 32 32" width="512" xmlns="http://www.w3.org/2000/svg"><g id="healthcare_x2C__medical_x2C__protection_1_"><g id="XMLID_451_"><g id="XMLID_493_"><g id="XMLID_513_"><path d="m23.996 22.506c-.104 0-.21-.033-.3-.101-.221-.166-.265-.479-.099-.7 1.245-1.655 1.903-3.628 1.903-5.705 0-.652-.067-1.305-.199-1.94-.056-.271.118-.535.388-.591.269-.056.535.118.591.388.146.702.22 1.423.22 2.143 0 2.295-.728 4.477-2.104 6.307-.099.131-.249.199-.4.199z" fill="rgb(0,0,0)"/></g><g id="XMLID_511_"><path d="m6.216 18.584c-.231 0-.439-.162-.489-.397-.15-.717-.227-1.453-.227-2.187 0-2.285.721-4.458 2.086-6.282.165-.222.479-.268.7-.101.221.166.267.479.101.7-1.235 1.65-1.887 3.615-1.887 5.683 0 .665.069 1.332.206 1.981.057.27-.116.535-.386.592-.035.008-.07.011-.104.011z" fill="rgb(0,0,0)"/></g><g id="XMLID_508_"><path d="m17.5 21h-3c-.276 0-.5-.224-.5-.5v-2.5h-2.5c-.276 0-.5-.224-.5-.5v-3c0-.276.224-.5.5-.5h2.5v-2.5c0-.276.224-.5.5-.5h3c.276 0 .5.224.5.5v2.5h2.5c.276 0 .5.224.5.5v3c0 .276-.224.5-.5.5h-2.5v2.5c0 .276-.224.5-.5.5zm-2.5-1h2v-2.5c0-.276.224-.5.5-.5h2.5v-2h-2.5c-.276 0-.5-.224-.5-.5v-2.5h-2v2.5c0 .276-.224.5-.5.5h-2.5v2h2.5c.276 0 .5.224.5.5z" fill="rgb(0,0,0)"/></g><g id="XMLID_501_"><g id="XMLID_506_"><path d="m18.141 30h-5.241c-.977 0-1.931-.218-2.836-.648l-3.503-1.702c-.898-.431-1.855-.65-2.84-.65h-2.221c-.276 0-.5-.224-.5-.5s.224-.5.5-.5h2.221c1.136 0 2.238.252 3.275.75l3.502 1.701c.766.363 1.575.549 2.402.549h5.141l4.367-1.802c0-.042.059-.429-.133-.758-.293-.504-.97-.52-1.483-.445-.745.115-1.361.322-1.904.505l-.206.069c-.263.085-.545-.054-.632-.317-.087-.262.055-.545.317-.632l.202-.067c.582-.196 1.241-.418 2.075-.546 2.062-.3 2.577.988 2.688 1.389.183.661.031 1.488-.54 1.727l-4.461 1.841c-.06.023-.125.036-.19.036z" fill="rgb(0,0,0)"/></g><g id="XMLID_504_"><path d="m11.635 22.877c-.188 0-.369-.107-.454-.289-.98-2.109-3.526-2.411-5.419-1.626-.061.025-.126.038-.192.038h-4.07c-.276 0-.5-.224-.5-.5s.224-.5.5-.5h3.973c2.707-1.075 5.536-.152 6.616 2.167.116.25.008.548-.243.665-.069.03-.14.045-.211.045z" fill="rgb(0,0,0)"/></g><g id="XMLID_502_"><path d="m16.374 27.623c-.065 0-.13-.013-.191-.038l-5.726-2.377c-.255-.106-.376-.398-.27-.654.106-.255.399-.375.654-.27l5.223 2.168c.219-1.031-.345-1.833-1.685-2.388l-2.943-1.222c-.255-.106-.376-.399-.27-.654s.399-.376.654-.27l2.942 1.222c2.061.854 2.817 2.375 2.074 4.172-.051.123-.148.221-.271.271-.061.027-.126.04-.191.04z" fill="rgb(0,0,0)"/></g></g><g id="XMLID_494_"><g id="XMLID_499_"><path d="m10.771 7.039c-1.573 0-2.003-1.074-2.103-1.434-.183-.661-.031-1.488.54-1.727l4.461-1.841c.06-.024.125-.037.19-.037h5.24c.977 0 1.931.218 2.836.648l3.503 1.702c.899.431 1.856.65 2.841.65h2.221c.276 0 .5.224.5.5s-.224.5-.5.5h-2.221c-1.136 0-2.238-.252-3.275-.75l-3.502-1.7c-.766-.364-1.575-.55-2.402-.55h-5.141l-4.368 1.802c0 .042-.059.429.133.758.294.504.969.52 1.483.445.745-.115 1.361-.322 1.904-.505l.206-.069c.263-.086.545.054.632.317.087.262-.055.545-.317.632l-.202.067c-.582.196-1.241.418-2.075.546-.21.032-.405.046-.584.046z" fill="rgb(0,0,0)"/></g><g id="XMLID_497_"><path d="m24.259 12.445c-1.89 0-3.572-.944-4.348-2.612-.116-.25-.008-.548.243-.665.251-.116.548-.007.665.243.979 2.108 3.524 2.409 5.419 1.626.061-.024.126-.037.192-.037h4.07c.276 0 .5.224.5.5s-.224.5-.5.5h-3.973c-.76.301-1.53.445-2.268.445z" fill="rgb(0,0,0)"/></g><g id="XMLID_495_"><path d="m20.372 10.12c-.064 0-.129-.012-.192-.038l-2.942-1.222c-2.061-.854-2.817-2.375-2.074-4.172.051-.123.148-.221.271-.271s.26-.051.383 0l5.726 2.377c.255.106.376.398.27.654s-.397.375-.654.27l-5.223-2.168c-.219 1.031.345 1.833 1.685 2.388l2.943 1.222c.255.106.376.399.27.654-.081.19-.267.306-.463.306z" fill="rgb(0,0,0)"/></g></g></g><g id="XMLID_491_"><path d="m22.515 24.035c-.128 0-.256-.049-.354-.146-.195-.195-.195-.512 0-.707.196-.195.547-.23.742-.035s.23.477.035.672l-.07.07c-.097.097-.225.146-.353.146z" fill="rgb(0,0,0)"/></g><g id="XMLID_484_"><path d="m9.515 9.035c-.129 0-.258-.05-.356-.149-.194-.197-.192-.513.005-.707l.071-.07c.196-.194.513-.192.707.005s.192.513-.005.707l-.071.07c-.097.096-.224.144-.351.144z" fill="rgb(0,0,0)"/></g></g></g></svg>