<svg id="Image" height="512" viewBox="0 0 64 64" width="512" xmlns="http://www.w3.org/2000/svg"><g><path d="m33 4c-14.485 0-21 12.865-21 22v13c0 1.324 2 1.323 2 0v-13c0-8.305 5.895-20 19-20s19 11.695 19 20v21c0 1.324 2 1.323 2 0v-21c0-9.135-6.516-22-21-22z"/><path d="m12 50v6c0 1.324 2 1.323 2 0v-6c0-1.324-2-1.323-2 0z"/><path d="m36.333 40.172c-1.895 1.694-4.764 1.71-6.674.035-.994-.871-2.314.63-1.318 1.504 2.671 2.339 6.678 2.32 9.326-.049.985-.882-.347-2.374-1.334-1.49z"/><path d="m53 58c-9.159 0-11.806-7.01-11.98-11.08 3.681-3.172 5.589-7.965 5.925-10.267 1.249-.673 4.055-2.632 4.055-6.653 0-2.441-1.416-3.582-3-3.902v-4.843c0-2.088-.664-4.069-1.92-5.73-3.177-4.204-8.161-6.525-13.08-6.525-9.601 0-15 6.938-15 12.255v4.843c-1.584.32-3 1.461-3 3.902 0 4.021 2.805 5.98 4.055 6.653.337 2.301 2.245 7.095 5.925 10.266-.173 4.071-2.82 11.081-11.98 11.081-1.323 0-1.324 2 0 2 9.77 0 13.192-6.881 13.863-11.713 1.739 1.045 3.778 1.713 6.137 1.713s4.398-.668 6.137-1.713c.671 4.832 4.094 11.713 13.863 11.713 1.324 0 1.323-2 0-2zm-7.073-37.662c-2.212-2.122-4.873-3.689-7.727-4.556.736-.982 1.032-2.189.726-3.468 3.037 1.382 6.545 4.264 7.001 8.024zm-10.155-9.042c1.672.781 1.72 3.114.024 3.936-5.834-.94-11.586 1.136-15.723 5.106.158-1.308.637-2.543 1.442-3.607 3.671-4.856 8.545-6.576 14.257-5.435zm-14.772 24.704c0-.412-.252-.781-.636-.932-.034-.012-3.364-1.356-3.364-5.068 0-.495 0-2 2-2 .552 0 1-.448 1-1v-3.64c6.889-8.457 19.108-8.46 26 0v3.64c0 .552.447 1 1 1 2 0 2 1.505 2 2 0 3.675-3.23 5.015-3.364 5.068-.383.151-.636.52-.636.932 0 2.375-3.859 12-12 12s-12-9.625-12-12z"/><path d="m43.788 31.074c.815-1.045-.766-2.275-1.576-1.23-1.085 1.391-3.16 1.619-4.439.063-.838-1.023-2.385.248-1.545 1.27 2.006 2.441 5.614 2.394 7.56-.103z"/><path d="m29.772 31.176c.841-1.023-.707-2.291-1.545-1.27-1.195 1.453-3.281 1.422-4.439-.063-.811-1.04-2.392.184-1.577 1.23 1.952 2.502 5.559 2.541 7.561.103z"/><path d="m37.692 25.888c.869-.835 2.738-.889 4.995-.146 1.256.411 1.882-1.487.625-1.9-4.136-1.358-6.162-.204-7.005.604-.968.93.448 2.344 1.385 1.442z"/><path d="m23.312 25.742c2.258-.743 4.125-.689 4.996.146.938.901 2.353-.513 1.385-1.443-.843-.809-2.873-1.961-7.004-.604-1.258.413-.634 2.312.623 1.901z"/><path d="m17 44v1c0 1.324 2 1.323 2 0v-1c0-1.324-2-1.323-2 0z"/><path d="m17 50c0 1.324 2 1.323 2 0v-1c0-1.324-2-1.323-2 0z"/><path d="m20 48h1c1.323 0 1.324-2 0-2h-1c-1.323 0-1.324 2 0 2z"/><path d="m16 46h-1c-1.323 0-1.324 2 0 2h1c1.323 0 1.324-2 0-2z"/><path d="m10 42c.552 0 1-.447 1-1v-1c0-1.324-2-1.323-2 0v1c0 .553.448 1 1 1z"/><path d="m10 44c-.552 0-1 .447-1 1v1c0 1.324 2 1.323 2 0v-1c0-.553-.448-1-1-1z"/><path d="m13 44c1.323 0 1.324-2 0-2h-1c-.552 0-1 .447-1 1s.448 1 1 1z"/><path d="m8 42h-1c-1.323 0-1.324 2 0 2h1c.552 0 1-.447 1-1s-.448-1-1-1z"/><path d="m49 48c0-.553-.447-1-1-1s-1 .447-1 1v1c0 1.324 2 1.323 2 0z"/><path d="m49 54v-1c0-1.324-2-1.323-2 0v1c0 1.324 2 1.323 2 0z"/><path d="m50 52h1c1.324 0 1.323-2 0-2h-1c-1.324 0-1.323 2 0 2z"/><path d="m46 50h-1c-1.324 0-1.323 2 0 2h1c1.324 0 1.323-2 0-2z"/></g></svg>