<svg id="Capa_1" enable-background="new 0 0 512 512" viewBox="0 0 512 512" xmlns="http://www.w3.org/2000/svg"><g><path d="m139.925 391.068h-15.2v-33.346c0-4.143-3.358-7.5-7.5-7.5s-7.5 3.357-7.5 7.5v40.846c0 4.143 3.358 7.5 7.5 7.5h7.874l-38.125 51.836-38.125-51.836h7.874c4.142 0 7.5-3.357 7.5-7.5v-106.032c0-4.143-3.358-7.5-7.5-7.5s-7.5 3.357-7.5 7.5v98.531h-15.2c-2.828 0-5.416 1.591-6.692 4.114-1.277 2.524-1.025 5.551.65 7.829l52.952 71.994c1.414 1.922 3.657 3.057 6.042 3.057s4.628-1.135 6.042-3.057l52.952-71.994c1.675-2.278 1.927-5.305.65-7.829-1.278-2.522-3.866-4.113-6.694-4.113z"/><path d="m476.866 391.068h-15.2v-98.531c0-4.143-3.357-7.5-7.5-7.5s-7.5 3.357-7.5 7.5v106.031c0 4.143 3.357 7.5 7.5 7.5h7.874l-38.126 51.836-38.125-51.836h7.873c4.143 0 7.5-3.357 7.5-7.5v-40.846c0-4.143-3.357-7.5-7.5-7.5s-7.5 3.357-7.5 7.5v33.346h-15.199c-2.828 0-5.416 1.591-6.692 4.114-1.276 2.524-1.025 5.551.65 7.829l52.951 71.994c1.413 1.922 3.656 3.057 6.042 3.057s4.629-1.135 6.042-3.057l52.952-71.994c1.676-2.278 1.927-5.305.65-7.829-1.276-2.523-3.864-4.114-6.692-4.114z"/><path d="m473.604 171.806c-.628 10.251-2.637 20.339-5.939 30.029h-79.938l-13.935-28.697c-3.568-7.371-11.133-12.016-19.183-11.883-8.119.077-15.558 4.892-18.948 12.258l-28.51 61.786-10.86-32.351c-1.318-3.927-5.573-6.041-9.497-4.724-3.927 1.318-6.042 5.57-4.724 9.497l16.87 50.25c.979 2.914 3.635 4.936 6.704 5.103.137.007.272.011.408.011 2.912 0 5.578-1.691 6.808-4.357l36.423-78.937c.979-2.126 3.125-3.515 5.539-3.537 2.3-.09 4.442 1.298 5.472 3.428l15.99 32.93c1.255 2.583 3.875 4.224 6.747 4.224h121.469c4.143 0 7.5-3.357 7.5-7.5s-3.357-7.5-7.5-7.5h-21.095c2.817-9.462 4.565-19.219 5.172-29.111.253-4.135-2.893-7.691-7.027-7.945-4.138-.225-7.693 2.893-7.946 7.026z"/><path d="m81.345 73.822c46.381-36.464 112.871-32.444 154.662 9.348l10.924 10.923c4.703 4.678 12.339 4.67 17.023-.014l10.89-10.89c22.068-22.069 51.413-34.224 82.626-34.224 31.204 0 60.542 12.147 82.608 34.205 15.369 15.36 26.033 34.642 30.84 55.759.791 3.479 3.883 5.838 7.306 5.838.551 0 1.111-.062 1.671-.188 4.039-.92 6.568-4.939 5.648-8.978-5.435-23.88-17.489-45.679-34.861-63.04-24.898-24.889-58.002-38.596-93.212-38.596-35.22 0-68.331 13.714-93.233 38.616l-8.801 8.802-8.822-8.821c-47.157-47.157-122.194-51.687-174.539-10.533-3.256 2.561-3.821 7.275-1.261 10.532 2.56 3.256 7.276 3.82 10.531 1.261z"/><path d="m504.5 229.026h-129.978c-2.318 0-4.47-1.347-5.482-3.433l-7.166-14.756c-1.266-2.607-3.927-4.231-6.82-4.224-2.899.029-5.521 1.726-6.736 4.358l-38.727 83.94c-1.057 2.289-3.376 3.666-5.864 3.532-2.51-.136-4.647-1.762-5.446-4.146l-35.727-106.402c-1.025-3.054-3.888-5.112-7.11-5.112s-6.084 2.059-7.11 5.112l-35.727 106.405c-.799 2.382-2.937 4.009-5.485 4.147-2.463.147-4.791-1.294-5.825-3.534l-38.728-83.941c-1.214-2.633-3.837-4.329-6.736-4.358-2.945-.021-5.555 1.616-6.821 4.224l-7.166 14.757c-1.012 2.085-3.164 3.432-5.482 3.432h-128.864c-4.142 0-7.5 3.357-7.5 7.5s3.358 7.5 7.5 7.5h41.558c24.713 31.063 51.946 60.571 80.639 87.96 1.452 1.383 3.313 2.069 5.172 2.069 1.98 0 3.958-.779 5.432-2.327 2.857-2.999 2.742-7.746-.258-10.604-25.334-24.133-49.406-50.053-71.682-77.099h68.004c8.218.01 15.821-4.91 19.221-12.385l32.091 69.557c3.436 7.445 10.953 12.257 19.15 12.257 9.079.014 17.134-5.764 20-14.38l28.617-85.228 28.616 85.226c2.874 8.653 10.982 14.427 20.066 14.385 8.201-.001 15.603-4.713 19.086-12.261l32.09-69.557.245.505c3.503 7.217 10.952 11.881 18.976 11.881h67.988c-46.965 57.041-101.04 107.96-160.887 151.41l-26.184 19.01-26.184-19.01c-21.992-15.966-43.383-33.081-63.579-50.868-3.108-2.738-7.848-2.437-10.585.671-2.738 3.108-2.437 7.848.671 10.585 20.548 18.098 42.31 35.509 64.681 51.751l27.905 20.259c2.123 1.549 4.609 2.322 7.095 2.322 2.48 0 4.961-.771 7.072-2.312l27.92-20.27c64.168-46.62 121.926-101.606 171.393-163.549h42.671c4.143 0 7.5-3.357 7.5-7.5s-3.357-7.499-7.5-7.499z"/><path d="m7.5 216.835h120.35c2.872 0 5.492-1.641 6.747-4.224l15.988-32.926c1.035-2.128 3.168-3.512 5.554-3.431 2.344.021 4.49 1.41 5.471 3.543l36.42 78.93c1.23 2.666 3.896 4.357 6.808 4.357.135 0 .272-.004.408-.011 3.069-.167 5.726-2.188 6.704-5.102l37.719-112.337c.835-2.482 3.154-4.15 5.771-4.15 2.623 0 4.947 1.668 5.78 4.146l9.7 28.899c1.318 3.926 5.566 6.042 9.497 4.724 3.927-1.318 6.042-5.57 4.724-9.497l-9.702-28.904c-2.891-8.594-10.928-14.368-19.999-14.368-9.065 0-17.098 5.774-19.99 14.372l-31.71 94.444-28.506-61.779c-3.393-7.374-10.833-12.188-18.881-12.265-.13-.002-.26-.003-.39-.003-7.968 0-15.344 4.627-18.869 11.876l-13.939 28.706h-79.932c-4.08-11.969-6.173-24.449-6.173-37.15 0-24.238 7.42-47.407 21.458-67.002 2.412-3.368 1.638-8.053-1.729-10.465s-8.053-1.639-10.465 1.729c-15.874 22.158-24.264 48.347-24.264 75.738 0 12.65 1.818 25.11 5.406 37.15h-19.956c-4.142 0-7.5 3.357-7.5 7.5s3.358 7.5 7.5 7.5z"/></g><g/><g/><g/><g/><g/><g/><g/><g/><g/><g/><g/><g/><g/><g/><g/></svg>