<svg id="LINE" viewBox="0 0 64 64" xmlns="http://www.w3.org/2000/svg"><path d="m23.24 60c-8.88 0-19.24-5.07-19.24-19.35 0-15.11 17.73-35.45 18.49-36.31.38-.43 1.12-.43 1.5 0 .44.5 10.79 12.34 15.82 24.7.21.51-.04 1.09-.55 1.3s-1.09-.04-1.3-.55c-4.14-10.16-12.23-20.26-14.72-23.25-3.41 4.08-17.24 21.45-17.24 34.11 0 16.86 15.48 17.35 17.24 17.35s5.17-.26 8.65-1.98c.5-.25 1.09-.04 1.34.45.25.5.04 1.09-.45 1.34-3.84 1.9-7.62 2.18-9.53 2.18z"/><path d="m18.96 53.85c-.09 0-.18-.01-.26-.04-3.57-.97-9.57-3.99-9.57-13.23 0-4.53 2.22-10.69 6.61-18.31.27-.48.89-.64 1.37-.37.48.28.64.89.37 1.37-4.15 7.21-6.34 13.19-6.34 17.31 0 7.52 4.4 10.3 8.09 11.3.53.15.85.69.7 1.23-.12.44-.52.74-.96.74z"/><path d="m45.55 60c-7.97 0-14.45-6.48-14.45-14.45s6.48-14.45 14.45-14.45 14.45 6.48 14.45 14.45-6.48 14.45-14.45 14.45zm0-26.9c-6.87 0-12.45 5.59-12.45 12.45s5.59 12.45 12.45 12.45 12.45-5.59 12.45-12.45-5.59-12.45-12.45-12.45z"/><g><path d="m45.55 54.78c-.17 0-.35-.05-.5-.14-.31-.18-.5-.51-.5-.86v-8.27c0-.36.19-.69.51-.87l7.32-4.13c.31-.17.69-.17 1 0 .31.18.5.51.5.86v8.27c0 .36-.19.69-.51.87l-7.32 4.13c-.15.09-.32.13-.49.13zm1-8.68v5.97l5.32-3v-5.97z"/><path d="m45.55 54.78c-.17 0-.34-.04-.49-.13l-7.32-4.13c-.31-.18-.51-.51-.51-.87v-8.27c0-.36.19-.68.5-.86s.69-.18 1 0l7.32 4.13c.31.18.51.51.51.87v8.27c0 .36-.19.68-.5.86-.16.09-.33.14-.5.14zm-6.32-5.72 5.32 3v-5.97l-5.32-3z"/><path d="m45.55 46.51c-.17 0-.34-.04-.49-.13l-7.32-4.1c-.32-.18-.51-.51-.51-.87s.2-.7.51-.87l7.32-4.1c.3-.17.67-.17.98 0l7.32 4.1c.32.18.51.51.51.87s-.2.7-.51.87l-7.32 4.1c-.15.08-.32.13-.49.13zm-5.28-5.1 5.27 2.95 5.27-2.95-5.27-2.95z"/></g><path d="m49.22 28.23c-.34 0-.65-.17-.83-.45l-6.78-10.26c-.2-.31-.22-.7-.05-1.03.17-.32.51-.53.88-.53h3.15v-10.96c0-.55.45-1 1-1h5.27c.55 0 1 .45 1 1v10.97h3.15c.37 0 .71.2.88.53.17.32.16.72-.05 1.03l-6.78 10.26c-.18.28-.5.45-.83.45zm-4.93-10.26 4.92 7.45 4.92-7.45h-2.29c-.55 0-1-.45-1-1v-10.97h-3.27v10.97c0 .55-.45 1-1 1h-2.29z"/></svg>