<svg id="Bones" height="512" viewBox="0 0 64 64" width="512" xmlns="http://www.w3.org/2000/svg"><path d="m17.69 31.52c2.51.43 5.13-.47 6.81-2.35 7.25 7.5 18.17-3.56 10.36-10.61-6.6-5.12-1.98-14.39-4.82-14.56h-11.08c-.55 0-1 .45-1 1 .12 4.73.43 10.35-3.82 13.56-4.82 3.76-2.56 12.15 3.55 12.96zm-2.26-11.43c4.41-3.44 4.81-8.95 4.53-14.09h9.08c-1.1 15.17 7.22 11.93 6.35 19.32-.88 4.89-7.91 5.78-10.21 1.47-.39-1.09-2.13-2.24-3.04-2.26-1.28-.24-1.62 1.77-.34 1.97.34 0 1.25.49 1.49 1-4.98 6.11-13.78-2.08-7.86-7.4z"/><path d="m22.13 53.25c-1.36-.08-1.61 2.6-.25 2.75 1.43.19 1.7-2.66.25-2.75z"/><path d="m21.89 52.28c.59 0 1.07-.53.99-1.12-.2-.88-.18-3.5-1.82-3.11-.52.18-.8.74-.63 1.27.61 1.14-.03 2.77 1.46 2.96z"/><path d="m20.99 45.84c-.71-1.32-3.99-6.23-5.61-4.51-.77 1.5 1.68 2.07 2.29 3.19.97.75 1.16 2.57 2.43 2.78.73.02 1.24-.82.89-1.46z"/><path d="m41 33c-2.07 0-4.02.56-5.7 1.52-2.87-3-8.15-2.78-10.8.3-3.75-4.47-11.91-2.38-12.85 3.47-1.41 6.89 6.77 8.07 6.31 15.27v5.43c0 .55.45 1 1 1h11.08c.55 0 1-.45 1-1 .03-1.94-.21-6.33.38-8.15 6.03 9.38 21.18 4.96 21.08-6.35 0-6.34-5.16-11.5-11.5-11.5zm-10.82 15.38c-1.43 2.7-1.13 6.66-1.14 9.62h-9.08c1.1-15.19-7.23-11.94-6.35-19.32.88-4.91 7.93-5.78 10.22-1.46.25 1.25 2.24 2.82 3.42 2.76 1.18.03 1.35-1.81.17-1.99-.51.03-1.64-.86-1.71-1.47 1.77-2.44 5.64-2.9 7.92-.84-3.63 3-5.09 8.26-3.44 12.69zm10.82 5.62c-12.57-.36-12.47-18.68 0-19 12.52.33 12.53 18.67 0 19z"/><path d="m45.5 41.5h-1.5c.24-3.42-.95-3.63-4-3.5-1.99.06-2.11 1.95-2 3.5-3.42-.24-3.63.95-3.5 4 .06 1.99 1.95 2.11 3.5 2-.24 3.42.95 3.63 4 3.5 1.99-.06 2.11-1.95 2-3.5 1.55.11 3.44 0 3.5-2 .04-1.62.25-3.94-2-4zm0 4c-2.92-.2-3.7.59-3.5 3.5h-2c.2-2.92-.59-3.7-3.5-3.5v-2c2.92.2 3.7-.59 3.5-3.5h2c-.2 2.91.59 3.7 3.5 3.5z"/></svg>