<svg id="Line" height="512" viewBox="0 0 512 512" width="512" xmlns="http://www.w3.org/2000/svg"><g><path d="m107.554 391.529a208.754 208.754 0 0 1 -22.4-149.758l-15.6-3.542a224.043 224.043 0 0 0 102.3 241.339l8.308-13.673a209.382 209.382 0 0 1 -72.608-74.366z"/><path d="m468.446 155.255-12.881 9.49a206.35 206.35 0 0 1 40.435 123.255c0 114.691-93.309 208-208 208a205.9 205.9 0 0 1 -92.44-21.616l-7.12 14.328a224.039 224.039 0 0 0 280.006-333.457z"/><path d="m288 80a208.325 208.325 0 0 1 155.039 69.335l11.921-10.67a224.356 224.356 0 0 0 -225.029-67.065l4.138 15.455a208.627 208.627 0 0 1 53.931-7.055z"/><path d="m169.643 208.045 52.057 15.618a8 8 0 0 0 10.3-7.663c0-2.3 0-7.622-18.11-57.435a110.859 110.859 0 0 0 10.11-46.565 111.96 111.96 0 1 0 -54.357 96.045zm-153.643-96.045a96 96 0 0 1 192 0 95.035 95.035 0 0 1 -9.942 42.6 8 8 0 0 0 -.348 6.3c7.443 20.384 12.253 34.461 15.066 43.384l-42-12.6a8 8 0 0 0 -6.649.948 96.017 96.017 0 0 1 -148.127-80.632z"/><path d="m136 168v-32h32a8 8 0 0 0 8-8v-32a8 8 0 0 0 -8-8h-32v-32a8 8 0 0 0 -8-8h-32a8 8 0 0 0 -8 8v32h-32a8 8 0 0 0 -8 8v32a8 8 0 0 0 8 8h32v32a8 8 0 0 0 8 8h32a8 8 0 0 0 8-8zm-16-40v32h-16v-32a8 8 0 0 0 -8-8h-32v-16h32a8 8 0 0 0 8-8v-32h16v32a8 8 0 0 0 8 8h32v16h-32a8 8 0 0 0 -8 8z"/><path d="m232 416h16v16h-16z"/><path d="m296 392h16v16h-16z"/><path d="m352 408h16v16h-16z"/><path d="m408 352h16v16h-16z"/><path d="m424 296h16v16h-16z"/><path d="m400 256h16v16h-16z"/><path d="m392 192h16v16h-16z"/><path d="m328 144h16v16h-16z"/><path d="m152 344h16v16h-16z"/><path d="m126.348 242.185-15.392-4.37a183.741 183.741 0 0 0 -6.956 50.185c0 101.458 82.542 184 184 184s184-82.542 184-184-82.542-184-184-184a183.779 183.779 0 0 0 -50.185 6.956l4.37 15.393a167.4 167.4 0 0 1 39.8-6.242 64.075 64.075 0 0 0 78.285 77.813 63.845 63.845 0 0 0 17.333 38.154 71.956 71.956 0 0 0 8.753 83.926 72.067 72.067 0 0 0 -17.956 40.391 70.844 70.844 0 0 0 -31.272 11 71.96 71.96 0 0 0 -100.756 2.425 72.251 72.251 0 0 0 -28.372-5.816 72.021 72.021 0 0 0 -87.721-70.268q-.279-4.832-.279-9.732a167.75 167.75 0 0 1 6.348-45.815zm9.652 69.815a56.063 56.063 0 0 1 56 56 56.683 56.683 0 0 1 -.52 7.525 8 8 0 0 0 9 9 56.706 56.706 0 0 1 7.52-.525 56.079 56.079 0 0 1 26.542 6.68 8 8 0 0 0 10-1.992 55.967 55.967 0 0 1 85.621-1.514 8 8 0 0 0 11 .994 55.4 55.4 0 0 1 34.837-12.168 8 8 0 0 0 8-8 56.047 56.047 0 0 1 18.982-42 8 8 0 0 0 0-12 55.947 55.947 0 0 1 -8.551-74.528 8 8 0 0 0 -1.349-10.77 47.924 47.924 0 0 1 -17.082-36.702c0-1.549.079-3.144.235-4.74a8 8 0 0 0 -11.433-7.987 47.559 47.559 0 0 1 -20.802 4.727 48.028 48.028 0 0 1 -45.382-63.668c87.708 5.496 157.382 78.598 157.382 167.668 0 92.636-75.364 168-168 168-83.871 0-153.584-61.778-166.025-142.219a55.819 55.819 0 0 1 14.025-1.781z"/></g></svg>