<svg id="Layer_1" viewBox="0 0 512 512" xmlns="http://www.w3.org/2000/svg" data-name="Layer 1"><path d="m491.858 242.039c1.162-6.009 1.219-12.132.198-18.085-1.19-6.86-3.77-13.493-7.71-19.445-3.94-5.925-9.014-10.914-14.882-14.655-4.507-2.892-9.496-5.074-14.797-6.435-1.333-4.876-3.458-9.468-6.293-13.578-3.713-5.414-8.674-10.006-14.542-13.408-5.896-3.374-12.387-5.358-18.935-5.839-4.536-.369-9.128 0-13.606 1.049-5.046-8.646-11.452-16.356-18.964-22.791-8.986-7.738-19.531-13.663-31.011-17.291-11.509-3.657-23.5-4.847-35.32-3.713-9.666.936-19.19 3.458-28.148 7.512-4.167-5.471-9.524-9.808-15.591-12.699-8.05-3.827-17.263-5.188-26.447-3.43-3.004.595-5.924 1.474-8.674 2.665-.142.057-.255.113-.369.17-1.7.726-3.313 1.563-4.852 2.482l-8.046-1.83c-.794-2.495-1.672-4.904-2.636-7.2-.964-2.381-2.041-4.706-3.231-7.002l9.269-14.711c2.126-3.402 3.515-7.257 3.515-11.083 0-3.912-1.333-7.682-4.479-10.829l-13.549-13.549c-3.146-3.146-6.888-4.451-10.829-4.451-3.827 0-7.682 1.361-11.083 3.487l-14.711 9.269c-2.296-1.19-4.621-2.268-6.973-3.231-2.325-.964-4.734-1.842-7.229-2.636l-3.855-16.951c-.879-3.912-2.636-7.625-5.358-10.318-2.778-2.778-6.35-4.507-10.8-4.507h-19.19c-4.422 0-8.022 1.729-10.8 4.507-2.693 2.693-4.45 6.406-5.357 10.318l-3.855 16.951c-2.466.794-4.875 1.672-7.2 2.636-2.353.964-4.677 2.069-6.973 3.231l-14.74-9.269c-3.373-2.126-7.256-3.487-11.083-3.487-3.912 0-7.682 1.304-10.8 4.451l-13.578 13.549c-3.146 3.146-4.45 6.917-4.45 10.829 0 3.827 1.361 7.682 3.487 11.083l9.269 14.711c-1.162 2.296-2.239 4.621-3.231 6.974-.964 2.324-1.842 4.733-2.636 7.228l-16.951 3.855c-3.912.879-7.625 2.665-10.318 5.358-2.778 2.778-4.507 6.35-4.507 10.8v19.19c0 4.422 1.729 8.022 4.507 10.8 2.693 2.693 6.406 4.479 10.318 5.357l16.951 3.855c.794 2.495 1.672 4.875 2.636 7.2.992 2.381 2.069 4.706 3.231 6.973l-9.269 14.74c-2.126 3.373-3.487 7.257-3.487 11.083 0 3.912 1.304 7.682 4.45 10.8l13.578 13.578c3.118 3.146 6.888 4.45 10.8 4.45 3.827 0 7.71-1.361 11.083-3.487l14.74-9.269c.208.106.42.201.629.305-2.058 2.636-3.904 5.535-5.477 8.681-3.827 7.653-5.613 16.016-5.357 24.293.198 7.03 1.842 13.975 4.932 20.438-7.171 13.918-9.354 29.367-6.973 44.079 2.41 14.57 9.298 28.403 20.296 39.26-1.53 8.419 1.219 17.405 8.249 26.929 6.406 8.702 16.611 18.057 30.643 28.091-8.731 11.225-15.505 23.726-20.183 36.964-5.528 15.647-8.05 32.343-7.342 49.237.142 3.742 3.231 6.69 6.973 6.69v.028h39.827c3.713 0 6.747-2.891 6.973-6.548 1.219-8.277 4.734-15.789 10.602-22.536 6.094-7.058 14.796-13.323 26.05-18.822 14.995-3.827 27.581-12.699 36.227-24.463 7.001-9.496 11.396-20.891 12.388-33.08 5.102 1.446 10.063 2.863 14.825 4.224 31.748 9.099 55.219 15.817 80.362 10.828 11.65-2.324 22.394-7.455 31.408-14.74 7.455-6.038 13.691-13.578 18.283-22.252 16.214 3.515 32.74 2.466 47.962-2.523 17.036-5.584 32.428-16.186 43.909-30.982 11.452-14.797 17.858-32.344 19.049-50.23 1.105-16.979-2.495-34.271-10.942-49.833zm-407.31-38.041-18.17 11.452c-1.275.794-2.58 1.304-3.657 1.304-.34 0-.652-.085-.907-.34l-13.578-13.578c-.227-.255-.34-.567-.34-.907 0-1.078.51-2.381 1.304-3.657l11.367-18.057c1.389-2.098 1.587-4.904.227-7.285-1.644-2.892-3.146-5.953-4.451-9.156-1.304-3.089-2.381-6.179-3.231-9.269-.567-2.551-2.58-4.677-5.272-5.272l-20.948-4.762c-1.446-.34-2.721-.879-3.487-1.644-.255-.255-.397-.567-.397-.907v-19.19c0-.369.142-.652.397-.907.766-.765 2.041-1.304 3.487-1.644l20.919-4.762c2.438-.539 4.507-2.381 5.216-4.96.879-3.203 1.984-6.406 3.316-9.609 1.304-3.146 2.778-6.18 4.394-9.042 1.304-2.183 1.332-4.989-.085-7.257l-11.452-18.199c-.794-1.247-1.304-2.551-1.304-3.628 0-.34.114-.681.34-.907l13.578-13.578c.255-.255.567-.368.907-.368 1.077 0 2.381.539 3.657 1.332l18.057 11.367c2.126 1.389 4.933 1.559 7.285.227 2.92-1.644 5.953-3.146 9.156-4.479 3.089-1.276 6.179-2.353 9.269-3.231 2.551-.567 4.677-2.551 5.301-5.272l4.762-20.92c.312-1.474.879-2.721 1.644-3.486.227-.255.539-.397.879-.397h19.19c.369 0 .652.142.907.397.765.765 1.304 2.012 1.644 3.486l4.762 20.92c.567 2.438 2.409 4.507 4.96 5.187 3.203.879 6.406 2.013 9.609 3.317 3.146 1.304 6.18 2.778 9.071 4.422 2.154 1.275 4.96 1.332 7.256-.113l18.17-11.424c1.247-.793 2.551-1.332 3.628-1.332.34 0 .681.113.936.368l13.55 13.578c.255.227.368.567.368.907 0 1.077-.51 2.381-1.332 3.628l-11.338 18.057c-1.417 2.126-1.587 4.932-.255 7.313 1.644 2.892 3.146 5.953 4.479 9.156 1.275 3.062 2.353 6.179 3.231 9.269.567 2.551 2.551 4.677 5.272 5.272l20.919 4.762c1.474.34 2.721.879 3.487 1.644.255.255.396.539.396.907v19.19c0 .34-.142.652-.396.907-.766.765-2.013 1.304-3.487 1.644l-20.919 4.762c-2.438.539-4.479 2.381-5.188 4.96-.879 3.203-1.984 6.406-3.316 9.581-1.304 3.175-2.778 6.208-4.422 9.071-1.275 2.183-1.332 4.989.113 7.257l11.424 18.17c.822 1.275 1.332 2.579 1.332 3.657 0 .34-.113.652-.368.907l-13.55 13.578c-.255.255-.595.34-.936.34-1.077 0-2.381-.51-3.628-1.304l-18.057-11.367c-2.126-1.389-4.932-1.587-7.285-.227-2.92 1.645-5.981 3.146-9.156 4.451-3.089 1.304-6.208 2.381-9.297 3.231-2.551.595-4.649 2.58-5.272 5.272l-4.762 20.948c-.34 1.446-.879 2.722-1.644 3.487-.255.255-.539.397-.907.397h-19.19c-.34 0-.652-.142-.879-.397-.765-.765-1.332-2.041-1.644-3.487l-4.762-20.948-.028.028c-.539-2.438-2.381-4.507-4.96-5.216-3.203-.879-6.406-1.984-9.581-3.316-3.146-1.304-6.18-2.778-9.071-4.394-2.183-1.304-4.96-1.332-7.256.085zm404.305 86.996c-.992 15.166-6.435 30.019-16.157 42.576-9.723 12.529-22.762 21.487-37.19 26.221-14.429 4.762-30.274 5.272-45.553.963-3.345-.935-6.917.709-8.306 3.969-3.798 8.844-9.638 16.441-16.866 22.309-7.229 5.839-15.874 9.978-25.285 11.849-21.855 4.337-43.965-2.012-73.842-10.573-7.129-2.045-14.723-4.225-23.11-6.461-2.054-.944-3.852-1.74-5.662-2.553-12.671-5.754-25.852-11.707-34.724-20.58-2.721-2.721-7.144-2.721-9.893 0-2.721 2.75-2.721 7.171 0 9.893 10.63 10.63 25.03 17.149 38.892 23.414.691.313 1.377.625 2.056.933-.142 10.854-3.726 21.082-9.851 29.426-6.86 9.326-16.866 16.299-28.743 19.276-.567.113-1.134.283-1.701.566-13.266 6.378-23.641 13.918-31.152 22.564-6.35 7.313-10.602 15.392-12.785 24.208h-27.156c.17-12.784 2.466-25.37 6.662-37.304h-.028l.028-.028c4.904-13.975 12.472-27.014 22.422-38.381.198-.227.369-.454.539-.681 2.154-3.203 1.333-7.54-1.871-9.694-15.903-10.771-27.071-20.494-33.478-29.168-5.216-7.086-6.973-13.096-5.272-18.028 1.248-2.75.624-6.094-1.786-8.192-10.403-9.043-16.838-21.146-18.936-33.959-1.606-9.748-.692-19.893 2.889-29.421 6.605 5.611 14.373 9.491 22.623 11.449 10.545 2.494 21.884 1.814 32.485-2.41 3.571-1.417 5.329-5.471 3.912-9.071-1.417-3.572-5.471-5.329-9.071-3.912-7.824 3.146-16.271 3.628-24.151 1.758-7.852-1.843-15.137-6.066-20.778-12.388-.104-.118-.216-.225-.326-.334-.13-.329-.283-.654-.467-.97-3.118-5.386-4.762-11.339-4.933-17.348-.198-6.066 1.105-12.132 3.884-17.688 1.134-2.268 2.494-4.422 4.11-6.435.781-1 1.603-1.937 2.46-2.824l3.833 16.856c.907 3.912 2.665 7.625 5.357 10.318 2.778 2.778 6.378 4.507 10.8 4.507h19.19c4.45 0 8.022-1.729 10.8-4.507 2.722-2.693 4.479-6.406 5.358-10.318l3.855-16.951c2.495-.794 4.904-1.672 7.229-2.636 2.353-.992 4.677-2.069 6.973-3.231l14.711 9.269c3.402 2.126 7.257 3.487 11.083 3.487 3.94 0 7.682-1.304 10.829-4.45l13.549-13.578c3.146-3.118 4.479-6.888 4.479-10.8 0-3.827-1.389-7.71-3.515-11.083l-9.269-14.712c1.19-2.296 2.268-4.621 3.231-6.973.964-2.325 1.842-4.734 2.665-7.229l16.923-3.855c3.912-.879 7.625-2.665 10.346-5.357 2.75-2.778 4.479-6.378 4.479-10.8v-19.19c0-4.125-1.498-7.486-3.905-10.169 5.074-.384 10.078.565 14.506 2.686 5.357 2.58 9.95 6.803 12.926 12.302l.085.17c1.843 3.374 6.066 4.621 9.439 2.778 8.958-4.876 18.681-7.795 28.602-8.759s20.041.085 29.792 3.146c9.723 3.09 18.595 8.079 26.164 14.57 7.54 6.491 13.805 14.513 18.312 23.641 1.587 3.203 5.386 4.734 8.787 3.43 4.337-1.701 8.929-2.353 13.493-1.984 4.563.34 9.014 1.672 13.039 3.997 4.025 2.296 7.427 5.471 10.006 9.241 2.551 3.713 4.309 7.994 5.018 12.529.425 2.976 2.75 5.442 5.839 5.924 5.102.793 9.893 2.636 14.173 5.357 4.252 2.75 7.937 6.35 10.771 10.63 2.834 4.309 4.734 9.099 5.584 14.088.851 4.96.652 10.12-.595 15.137-.425 1.701-.227 3.543.737 5.188 7.994 13.72 11.423 29.197 10.431 44.362zm-138.444-50.117c2.438 2.438 3.94 5.584 3.94 9.439v14.797c0 3.572-1.304 6.548-3.43 8.901-.17.198-.312.369-.482.539-2.324 2.324-5.442 3.827-8.759 4.563l-12.161 2.778c-.567 1.644-1.162 3.26-1.786 4.819-.652 1.559-1.389 3.118-2.154 4.677l6.662 10.573c1.814 2.834 2.948 6.123 2.948 9.382 0 3.43-1.162 6.718-3.912 9.468l-10.432 10.46c-2.75 2.75-6.038 3.912-9.468 3.912-3.288 0-6.548-1.162-9.411-2.948l-10.573-6.662c-1.531.766-3.089 1.474-4.677 2.126-1.559.652-3.146 1.247-4.819 1.786l-2.75 12.188c-.765 3.289-2.268 6.435-4.563 8.731-2.438 2.438-5.584 3.94-9.468 3.94h-14.769c-3.883 0-7.03-1.502-9.468-3.94-2.296-2.296-3.798-5.442-4.564-8.731l-2.75-12.188c-1.672-.539-3.26-1.134-4.819-1.786-1.587-.652-3.146-1.36-4.677-2.126l-10.573 6.662c-2.863 1.786-6.123 2.948-9.382 2.948-3.458 0-6.747-1.162-9.468-3.912l-10.46-10.46c-2.75-2.75-3.912-6.038-3.912-9.468 0-3.26 1.162-6.548 2.948-9.382l6.662-10.573c-.766-1.559-1.474-3.118-2.126-4.677s-1.248-3.175-1.814-4.819l-12.161-2.778c-3.316-.737-6.435-2.239-8.73-4.563-2.438-2.438-3.94-5.584-3.94-9.439v-14.797c0-3.6 1.304-6.576 3.458-8.929.142-.17.312-.34.482-.51 2.296-2.324 5.414-3.827 8.73-4.563l16.129-3.686c3.742-.822 7.483 1.531 8.333 5.301.851 3.742-1.53 7.483-5.272 8.333l-16.129 3.657c-.737.17-1.361.397-1.757.708v14.174c.396.312 1.021.538 1.757.708l16.129 3.657c2.722.624 4.706 2.75 5.272 5.272.652 2.296 1.446 4.592 2.41 6.917.992 2.409 2.126 4.706 3.345 6.86 1.361 2.381 1.163 5.188-.227 7.285l-8.731 13.89c-.425.652-.68 1.247-.765 1.757l10.035 10.006c.482-.057 1.105-.34 1.729-.737l14.032-8.815c2.268-1.446 5.074-1.389 7.256-.113 2.154 1.219 4.422 2.324 6.775 3.316 2.41.992 4.819 1.814 7.2 2.494 2.58.681 4.422 2.75 4.96 5.188l3.685 16.129c.142.708.397 1.332.68 1.729h14.202c.284-.397.539-1.021.681-1.729l3.685-16.129c.596-2.721 2.722-4.705 5.272-5.272 2.268-.652 4.564-1.445 6.888-2.409 2.41-.992 4.706-2.126 6.888-3.373 2.353-1.333 5.159-1.134 7.285.255l13.89 8.73c.624.397 1.248.681 1.729.737l10.035-10.006c-.085-.51-.34-1.105-.766-1.757l-8.787-14.003c-1.446-2.296-1.389-5.074-.114-7.256 1.219-2.155 2.325-4.422 3.289-6.775 1.021-2.41 1.842-4.819 2.494-7.2.709-2.58 2.75-4.422 5.188-4.96v-.028l16.129-3.657c.737-.17 1.36-.397 1.757-.708v-14.174c-.397-.312-1.021-.538-1.757-.708l-16.129-3.657c-2.721-.624-4.706-2.721-5.272-5.272-.652-2.296-1.446-4.592-2.409-6.888-.992-2.41-2.126-4.706-3.345-6.889-1.36-2.353-1.162-5.159.227-7.285l8.73-13.89c.425-.624.681-1.247.766-1.729l-10.035-10.035c-.482.057-1.105.34-1.729.737l-14.003 8.815c-2.296 1.446-5.103 1.389-7.285.113-2.154-1.219-4.394-2.324-6.775-3.316-2.409-.992-4.819-1.814-7.2-2.466-2.58-.709-4.422-2.778-4.961-5.216l-3.685-16.129c-.142-.708-.397-1.332-.681-1.729h-14.202c-.283.397-.539 1.021-.68 1.729l-3.685 16.129c-.85 3.77-4.563 6.123-8.334 5.301-3.77-.851-6.123-4.592-5.272-8.362l3.657-16.129c.766-3.289 2.268-6.435 4.564-8.731l.028.028c2.438-2.438 5.584-3.968 9.439-3.968h14.769c3.6 0 6.548 1.304 8.929 3.458.17.142.368.312.539.482 2.296 2.296 3.798 5.442 4.563 8.731l2.75 12.188c1.673.539 3.289 1.134 4.819 1.786 1.587.652 3.146 1.36 4.677 2.126l10.573-6.662c2.863-1.786 6.123-2.919 9.411-2.919 3.43 0 6.718 1.134 9.468 3.883l10.432 10.46c2.75 2.75 3.912 6.038 3.912 9.468 0 3.26-1.134 6.548-2.948 9.382l-6.662 10.602c.765 1.531 1.474 3.09 2.154 4.677.624 1.531 1.219 3.146 1.786 4.791l12.161 2.778c3.317.737 6.435 2.239 8.759 4.563h-.028zm-92.665 66.246c13.635 0 25.965-5.527 34.923-14.485 8.929-8.929 14.457-21.288 14.457-34.923s-5.527-25.994-14.457-34.923c-8.958-8.929-21.288-14.457-34.923-14.457s-25.994 5.527-34.951 14.457c-8.929 8.929-14.457 21.288-14.457 34.923s5.527 25.994 14.457 34.923c8.958 8.958 21.288 14.485 34.951 14.485zm-25.03-74.438c6.406-6.407 15.25-10.375 25.03-10.375s18.624 3.968 25.03 10.375c6.378 6.406 10.347 15.25 10.347 25.03s-3.969 18.624-10.347 25.03c-6.406 6.406-15.279 10.375-25.03 10.375s-18.624-3.969-25.03-10.375c-6.407-6.406-10.375-15.25-10.375-25.03s3.968-18.624 10.375-25.03zm-53.632-53.631c11.962-11.962 19.361-28.488 19.361-46.744s-7.398-34.781-19.361-46.743c-11.962-11.962-28.488-19.361-46.743-19.361s-34.781 7.398-46.743 19.361c-11.962 11.962-19.361 28.488-19.361 46.743s7.398 34.781 19.361 46.744 28.488 19.36 46.743 19.36 34.781-7.398 46.743-19.36zm-98.844-46.744c0-14.372 5.811-27.411 15.25-36.822 9.439-9.439 22.451-15.279 36.851-15.279s27.411 5.839 36.822 15.279c9.439 9.411 15.278 22.45 15.278 36.822s-5.839 27.411-15.278 36.851c-9.411 9.439-22.451 15.25-36.822 15.25s-27.411-5.812-36.851-15.25c-9.439-9.439-15.25-22.451-15.25-36.851z"/></svg>