<svg id="Layer_1" enable-background="new 0 0 512 512" viewBox="0 0 512 512" xmlns="http://www.w3.org/2000/svg"><path d="m491.57 184.72c.01-.24 0-.48-.01-.73-3.71-58.23-26.54-106.22-66.02-138.78-34.52-28.46-81.5-44.51-132.28-45.19-53.11-.72-107.07 15.56-148.05 44.61-21.86 15.5-39.59 34.1-52.7 55.3-14.12 22.82-22.52 48.13-24.97 75.23-.65 7.2-.62 13.55-.59 19.69.1 22.25.19 41.46-36.84 88.96-.18.23-.34.47-.5.71-9.42 15.24-11.57 27.17-6.55 36.47 5.28 9.79 16.86 13.11 27.66 14.35-1.32 4.08-1.17 7.76-.53 10.69 1.21 5.53 4.6 10.24 8.82 13.84-4.68 5.42-5.23 11.14-5.14 14.07.24 8.14 5.33 15.71 13.48 20.68-8.32 22.54-7.8 39.13 1.52 50.55 13.44 16.48 42.05 19.34 95.03 9.29l8.93 36.73c2.94 12.26 13.83 20.82 26.47 20.82h200.07c9.24 0 17.49-4.4 22.64-12.08 5.14-7.67 6.06-16.98 2.54-25.54v-.01c-36.37-87.99-10.94-123.42 18.5-164.45 21.97-30.66 46.9-65.41 48.52-125.21zm-81.85 295.76c1.5 3.64 1.14 7.27-1.04 10.52-2.22 3.31-5.36 4.98-9.33 4.98h-200.07c-5.29 0-9.67-3.43-10.9-8.57l-10.74-44.19c-.89-3.65-4.15-6.12-7.77-6.12-.53 0-1.07.05-1.6.16-18.07 3.68-73.04 14.87-86.99-2.23-6.08-7.45-4.85-21.35 3.66-41.32.87-2.05.85-4.37-.05-6.4s-2.62-3.6-4.73-4.32c-6.63-2.25-10.18-6.51-10.27-9.54-.11-3.55 4.96-6.01 7.15-6.9 3.16-1.29 5.15-4.43 4.97-7.84-.18-3.4-2.49-6.32-5.77-7.27-4.27-1.24-9.58-5.17-10.38-8.83-.64-2.95 2.27-6.19 4.82-8.39 2.5-2.16 3.43-5.63 2.32-8.75s-4.01-5.23-7.32-5.32l-.97-.03c-7.87-.22-24.26-.67-27.53-6.74-1.92-3.56.22-10.86 5.86-20.08 40.16-51.62 40.06-74.4 39.95-98.52-.03-5.77-.05-11.73.53-18.17 9.55-105.98 115.12-161.83 209.53-160.57 83.02 1.1 174.51 45.98 182.5 168.61-1.57 54.67-23.92 85.82-45.54 115.94-30.89 43.03-60.06 83.69-20.29 179.89zm-202.69-280.48c0 39.99 32.53 72.52 72.52 72.52 39.97 0 72.5-32.53 72.5-72.52s-32.52-72.52-72.5-72.52c-39.99 0-72.52 32.53-72.52 72.52zm129 0c0 31.16-25.34 56.51-56.48 56.51-31.16 0-56.51-25.35-56.51-56.51s25.35-56.51 56.51-56.51c31.15.01 56.48 25.36 56.48 56.51zm-62.29 8.47 33.91-33.91c3.13-3.13 8.2-3.13 11.33 0s3.13 8.2 0 11.33l-39.57 39.57c-1.56 1.56-3.61 2.35-5.66 2.35s-4.1-.78-5.66-2.35l-27.98-27.98c-3.13-3.13-3.13-8.2 0-11.33s8.2-3.13 11.33 0zm-141.24-39.27c12.2-58.43 57.83-104.05 116.25-116.22 4.33-.9 8.57 1.88 9.47 6.21s-1.88 8.57-6.21 9.47c-52.18 10.87-92.94 51.61-103.83 103.81-.79 3.78-4.12 6.37-7.83 6.37-.54 0-1.09-.06-1.64-.17-4.33-.9-7.11-5.14-6.21-9.47zm125.72 171.62c-.79 3.78-4.12 6.38-7.83 6.38-.54 0-1.09-.05-1.64-.17-58.42-12.16-104.05-57.79-116.25-116.24-.9-4.33 1.87-8.57 6.2-9.48s8.57 1.87 9.48 6.2c10.9 52.21 51.66 92.97 103.83 103.84 4.34.9 7.12 5.14 6.21 9.47zm168.35-110.04c-12.17 58.45-57.8 104.08-116.25 116.25-.55.12-1.1.17-1.64.17-3.71 0-7.04-2.6-7.83-6.38-.9-4.33 1.88-8.57 6.21-9.47 52.21-10.87 92.96-51.63 103.83-103.83.9-4.33 5.14-7.11 9.47-6.21 4.34.9 7.12 5.14 6.21 9.47zm-125.72-171.59c.9-4.33 5.14-7.11 9.47-6.21 58.45 12.17 104.08 57.79 116.25 116.22.9 4.33-1.88 8.57-6.21 9.47-.55.11-1.1.17-1.64.17-3.71 0-7.04-2.6-7.83-6.38-10.87-52.19-51.62-92.93-103.83-103.81-4.33-.89-7.11-5.13-6.21-9.46zm-46.07 24.2c3.13-3.13 8.2-3.13 11.33 0l5.44 5.44v-53.58c0-4.42 3.58-8.01 8.01-8.01s8.01 3.58 8.01 8.01v53.55l5.4-5.41c3.12-3.13 8.19-3.13 11.32-.01 3.13 3.13 3.13 8.2.01 11.32l-19.08 19.11c-1.5 1.5-3.54 2.35-5.66 2.35-2.12 0-4.16-.84-5.66-2.35l-19.11-19.11c-3.13-3.11-3.13-8.18-.01-11.31zm49.51 233.23c-3.13 3.13-8.2 3.12-11.32-.01l-5.4-5.41v53.55c0 4.42-3.58 8.01-8.01 8.01s-8.01-3.58-8.01-8.01v-53.57l-5.44 5.44c-1.56 1.56-3.61 2.35-5.66 2.35s-4.1-.78-5.66-2.35c-3.13-3.13-3.13-8.2 0-11.33l19.11-19.11c1.5-1.5 3.54-2.35 5.66-2.35 2.13 0 4.16.85 5.66 2.35l19.08 19.11c3.12 3.13 3.12 8.2-.01 11.33zm147.99-116.62c0 4.42-3.58 8.01-8.01 8.01h-53.55l5.44 5.44c3.13 3.13 3.13 8.2 0 11.33-1.56 1.56-3.61 2.35-5.66 2.35s-4.1-.78-5.66-2.35l-19.11-19.11c-3.13-3.13-3.13-8.2 0-11.33l19.11-19.11c3.13-3.13 8.2-3.13 11.33 0s3.13 8.2 0 11.33l-5.44 5.44h53.55c4.42 0 8 3.58 8 8zm-283.91 8.01h-53.57c-4.42 0-8.01-3.58-8.01-8.01s3.58-8.01 8.01-8.01h53.57l-5.43-5.44c-3.13-3.13-3.12-8.2.01-11.32 3.13-3.13 8.2-3.12 11.32.01l19.08 19.11c3.12 3.13 3.12 8.19 0 11.32l-19.08 19.11c-1.56 1.57-3.62 2.35-5.67 2.35s-4.09-.78-5.66-2.34c-3.13-3.13-3.13-8.2-.01-11.32z"/></svg>