<svg id="Capa_1" enable-background="new 0 0 512 512" height="512" viewBox="0 0 512 512" width="512" xmlns="http://www.w3.org/2000/svg"><g><g><path d="m470.097 206.503c-3.63-29.482-18.475-55.843-41.802-74.229-23.312-18.373-52.388-26.649-81.861-23.313-19.479 2.206-37.246 9.345-52.202 20.02-2.661-7.164-4.638-15.746-5.895-25.739-3.84-30.531 1.193-60.972 1.239-61.247 3.369-19.465-9.721-38.062-29.183-41.46-19.485-3.391-38.108 9.688-41.51 29.175-.282 1.617-6.847 40.074-1.89 81.246 3.175 26.377 10.425 48.84 21.548 66.764 3.541 5.705 7.487 10.943 11.794 15.717-3.062 12.347-4.049 25.414-2.605 38.756 1.105 10.21 3.583 20.178 7.364 29.626.048.118.173.432-.034.783-.209.351-.545.391-.713.412l-.147.019c-23.171 2.852-43.844 14.557-58.212 32.958-2.886 3.697-5.433 7.583-7.662 11.607h-25.555c-43.433 0-78.769 35.336-78.769 78.769v90.38c0 19.438 15.814 35.252 35.252 35.252s35.252-15.814 35.252-35.252v-90.38c0-4.557 3.707-8.264 8.264-8.264h19.495c5.376 15.248 15.152 28.393 28.888 38.594 16.88 12.535 39.035 19.812 62.387 20.487 2.32.065 5.086.02 7.289.003 19.526-.31 43.301-8.362 66.943-22.671 25.142-15.217 48.76-36.491 68.302-61.52 19.245-24.647 32.184-45.381 41.953-67.231 7.897-17.656 15.794-49.009 12.07-79.262zm-214.44-39.405c-9.563-15.411-15.843-35.11-18.664-58.55-4.607-38.26 1.474-73.88 1.735-75.375 1.333-7.634 7.993-13.028 15.491-13.028.895 0 1.801.077 2.712.236 8.533 1.489 14.274 9.644 12.794 18.19-.057.331-5.625 33.402-1.375 67.186 1.835 14.584 5.153 26.968 9.898 37.074-8.013 8.382-14.717 17.975-19.83 28.427-.95-1.352-1.875-2.733-2.761-4.16zm-121.293 219.269v90.38c0 8.331-6.778 15.108-15.108 15.108s-15.108-6.777-15.108-15.108v-90.38c0-32.326 26.299-58.625 58.625-58.625h17.503c-2.535 9.743-3.363 19.935-2.39 30.216h-15.113c-15.665.001-28.409 12.745-28.409 28.409zm305.276-108.824c-9.077 20.301-21.241 39.747-39.441 63.057-40.456 51.817-90.341 75.94-119.612 76.445-1.942.01-4.416.063-6.464.004-34.332-.993-71.145-19.639-75.997-59.052-2.195-17.831 2.685-35.448 13.741-49.609 11.056-14.16 26.965-23.167 44.803-25.363l.136-.017c6.557-.793 12.237-4.487 15.585-10.137s3.86-12.406 1.407-18.536c-3.099-7.745-5.131-15.925-6.039-24.31-5.419-50.049 30.893-95.378 80.944-101.048 3.464-.392 6.9-.583 10.311-.583 45.61 0 85.394 34.286 91.091 80.57 3.01 24.47-3.086 52.076-10.465 68.579z"/><path d="m275.463 346.835c-3.337 0-6.043 2.706-6.043 6.043v10.526c0 3.337 2.706 6.043 6.043 6.043s6.043-2.706 6.043-6.043v-10.526c.001-3.337-2.705-6.043-6.043-6.043z"/><path d="m316.317 357.362c-3.337 0-6.043 2.706-6.043 6.043v10.526c0 3.337 2.706 6.043 6.043 6.043s6.043-2.706 6.043-6.043v-10.526c.001-3.337-2.705-6.043-6.043-6.043z"/><path d="m345.724 311.627c-3.337 0-6.043 2.706-6.043 6.043v10.526c0 3.337 2.706 6.043 6.043 6.043s6.043-2.706 6.043-6.043v-10.526c0-3.337-2.706-6.043-6.043-6.043z"/><path d="m309.013 251.734c-4.77 0-9.008-3.402-9.897-8.262-2.234-12.214-2.43-24.264-.582-35.814.878-5.494 6.042-9.234 11.537-8.355 5.493.878 9.233 6.043 8.355 11.536-1.486 9.288-1.315 19.048.507 29.009 1.001 5.472-2.624 10.719-8.096 11.72-.613.112-1.223.166-1.824.166z"/><path d="m321.902 185.517c-1.988 0-3.996-.587-5.751-1.811-4.564-3.181-5.684-9.458-2.503-14.022 2.255-3.234 4.288-5.739 6.397-7.882 3.902-3.966 10.28-4.015 14.244-.111 3.964 3.903 4.014 10.28.111 14.243-1.294 1.314-2.637 2.988-4.227 5.269-1.958 2.809-5.089 4.314-8.271 4.314z"/></g><g><path d="m63.655 228.183 8.274 23.264c.354.996 1.056 1.785 1.941 2.184l20.669 9.312c2.92 1.316 2.92 5.968 0 7.284l-20.669 9.312c-.885.399-1.586 1.188-1.941 2.184l-8.274 23.264c-1.169 3.287-5.303 3.287-6.472 0l-8.274-23.264c-.354-.996-1.055-1.785-1.941-2.184l-20.668-9.311c-2.92-1.316-2.92-5.968 0-7.284l20.669-9.312c.885-.399 1.586-1.188 1.941-2.184l8.274-23.264c1.168-3.288 5.302-3.288 6.471-.001z"/><path d="m463.357 40.078 6.137 17.257c.263.739.783 1.324 1.439 1.62l15.332 6.908c2.166.976 2.166 4.427 0 5.403l-15.332 6.908c-.656.296-1.177.881-1.439 1.62l-6.137 17.257c-.867 2.438-3.933 2.438-4.8 0l-6.137-17.257c-.263-.739-.783-1.324-1.439-1.62l-15.332-6.908c-2.166-.976-2.166-4.427 0-5.403l15.332-6.908c.656-.296 1.177-.881 1.439-1.62l6.137-17.257c.866-2.438 3.933-2.438 4.8 0z"/><path d="m160.429 160.242 6.137 17.257c.263.739.783 1.324 1.439 1.62l15.332 6.908c2.166.976 2.166 4.427 0 5.403l-15.332 6.908c-.656.296-1.177.881-1.439 1.62l-6.137 17.257c-.867 2.438-3.933 2.438-4.8 0l-6.137-17.257c-.263-.739-.783-1.324-1.439-1.62l-15.332-6.908c-2.166-.976-2.166-4.427 0-5.403l15.332-6.908c.656-.296 1.177-.881 1.439-1.62l6.137-17.257c.866-2.438 3.933-2.438 4.8 0z"/><ellipse cx="73.168" cy="98.879" rx="18.066" ry="18.066" transform="matrix(.707 -.707 .707 .707 -48.488 80.699)"/><circle cx="369.364" cy="46.043" r="7.793"/></g></g></svg>