<svg id="Capa_1" enable-background="new 0 0 512 512" height="512" viewBox="0 0 512 512" width="512" xmlns="http://www.w3.org/2000/svg"><g id="XMLID_28_"><g id="XMLID_149_"><path id="XMLID_229_" d="m493.306 357.107c-12.055-15.102-29.071-25.778-47.915-30.061l-109.391-24.862v-26.377c28.804-18.047 48-50.069 48-86.494v-64.203c0-56.243-45.757-102-102-102s-102 45.757-102 102v64.204c0 36.426 19.196 68.447 48 86.494v26.377l-64 14.545v-20.444c0-16.857-13.714-30.571-30.571-30.571h-.984v-24c0-11.028-8.972-20-20-20h-60.889c-11.028 0-20 8.972-20 20v24h-.984c-16.858 0-30.572 13.714-30.572 30.571v185.143c0 16.857 13.714 30.571 30.572 30.571h206.428c5.522 0 10-4.477 10-10s-4.478-10-10-10h-74.886c1.218-3.296 1.886-6.857 1.886-10.571v-144.189l41.404-9.41c5.468 37.376 37.727 66.17 76.596 66.17s71.128-28.794 76.596-66.17l82.363 18.719c30.052 6.83 51.041 33.125 51.041 63.943v81.508h-164.996c-5.522 0-10 4.477-10 10s4.478 10 10 10h174.996c5.522 0 10-4.477 10-10v-91.508c0-19.323-6.638-38.283-18.694-53.385zm-441.75-115.392h60.889v24h-60.889zm10.444 250.285h-31.428c-5.83 0-10.572-4.742-10.572-10.571v-185.143c0-5.829 4.742-10.571 10.571-10.571h102.857c5.829 0 10.571 4.742 10.571 10.571v185.143c0 5.829-4.742 10.571-10.571 10.571zm220-448.89c37.582 0 69.317 25.423 78.969 59.967-18.786-6.56-40.53-2.347-55.517 12.64-13.049 13.049-34.285 13.051-47.334 0-14.863-14.862-36.366-19.12-55.043-12.792 9.703-34.467 41.399-59.815 78.925-59.815zm-82 146.203v-62.383c13.111-10.025 31.993-9.056 43.976 2.929 10.425 10.424 24.117 15.636 37.81 15.635 13.692 0 27.386-5.212 37.81-15.636 12.114-12.115 31.28-12.975 44.405-2.596v62.05c0 45.215-36.785 82-82 82s-82.001-36.784-82.001-81.999zm82 184.687c-29.361 0-53.63-22.155-57.006-50.622l15.222-3.46c4.554-1.035 7.784-5.083 7.784-9.751v-24.688c10.64 3.773 22.083 5.834 34 5.834s23.36-2.061 34-5.834v24.688c0 4.669 3.23 8.717 7.784 9.751l15.222 3.46c-3.376 28.468-27.645 50.622-57.006 50.622z"/><path id="XMLID_239_" d="m302.095 233.374c3.905-3.905 3.905-10.237 0-14.143-3.906-3.905-10.236-3.905-14.143 0-3.281 3.282-8.623 3.282-11.904 0-3.906-3.905-10.236-3.905-14.143 0-3.905 3.905-3.905 10.237 0 14.143 5.54 5.54 12.817 8.31 20.095 8.31s14.555-2.77 20.095-8.31z"/><path id="XMLID_241_" d="m282 492c-2.63 0-5.21 1.07-7.07 2.93s-2.93 4.44-2.93 7.07 1.069 5.21 2.93 7.07 4.44 2.93 7.07 2.93 5.21-1.07 7.069-2.93c1.86-1.86 2.931-4.44 2.931-7.07s-1.07-5.21-2.931-7.07c-1.859-1.86-4.439-2.93-7.069-2.93z"/><path id="XMLID_242_" d="m104.58 378.857h-31.681l11.925-34.442c1.807-5.219-.96-10.915-6.179-12.721-5.219-1.808-10.914.959-12.722 6.178l-16.519 47.714c-1.058 3.057-.572 6.437 1.304 9.072 1.877 2.635 4.912 4.2 8.146 4.2h31.682l-11.924 34.442c-1.807 5.219.96 10.915 6.179 12.721 1.083.375 2.187.553 3.271.553 4.144 0 8.018-2.596 9.45-6.731l16.519-47.714c1.058-3.057.572-6.437-1.304-9.072-1.877-2.635-4.912-4.2-8.147-4.2z"/><path id="XMLID_243_" d="m82.605 38.538 4.395-4.395v69.524c0 5.523 4.478 10 10 10s10-4.477 10-10v-69.524l4.396 4.396c1.953 1.953 4.512 2.929 7.071 2.929s5.118-.976 7.071-2.929c3.905-3.905 3.905-10.237 0-14.143l-21.466-21.467c-3.906-3.905-10.236-3.905-14.143 0l-21.467 21.467c-3.905 3.905-3.905 10.237 0 14.143 3.906 3.905 10.236 3.905 14.143-.001z"/><path id="XMLID_244_" d="m17.072 129.859 4.396-4.396v57.733c0 5.523 4.478 10 10 10s10-4.477 10-10v-57.733l4.396 4.396c1.953 1.953 4.512 2.929 7.071 2.929s5.118-.976 7.071-2.929c3.905-3.905 3.905-10.237 0-14.143l-21.468-21.466c-3.906-3.905-10.236-3.905-14.143 0l-21.466 21.467c-3.905 3.905-3.905 10.237 0 14.143 3.906 3.904 10.236 3.904 14.143-.001z"/></g></g></svg>