<?xml version="1.0" encoding="UTF-8"?>
<svg xmlns="http://www.w3.org/2000/svg" id="Layer_3" data-name="Layer 3" viewBox="0 0 64 64" width="512" height="512"><path d="M39,36A12,12,0,1,0,27,48,12.013,12.013,0,0,0,39,36Zm-2,0a9.94,9.94,0,0,1-2.019,6h-.153a5.875,5.875,0,0,1-3.351-1.062l.609-.61A3.117,3.117,0,0,0,28.2,35.5l-.9-1.349a1.789,1.789,0,0,1,.225-2.26l.164-.164A4.437,4.437,0,0,0,29,28.563a4.5,4.5,0,0,0-.229-1.414l-.346-1.035A10.007,10.007,0,0,1,37,36ZM26.292,26.036l.581,1.744a2.5,2.5,0,0,1,.127.783,2.451,2.451,0,0,1-.726,1.748l-.164.165a3.789,3.789,0,0,0-.473,4.782l1.076,1.615L25.586,38h-2.01A4.95,4.95,0,0,0,24,36a4.913,4.913,0,0,0-5.683-4.94A10,10,0,0,1,26.292,26.036ZM17,36a9.951,9.951,0,0,1,.322-2.474,3,3,0,1,1,0,4.948A9.951,9.951,0,0,1,17,36Zm1.317,4.94A5.023,5.023,0,0,0,19,41a4.948,4.948,0,0,0,3-1.026V40h4a1,1,0,0,0,.707-.293l2.379-2.379a1.121,1.121,0,0,1,1.586,1.586l-1.379,1.379a1,1,0,0,0,0,1.414,7.884,7.884,0,0,0,3.916,2.117A9.967,9.967,0,0,1,18.317,40.94Z"/><path d="M26,63H47a1,1,0,0,0,1-1V58.6a7.086,7.086,0,0,1,1.326-4.139,19.721,19.721,0,0,0,0-22.927A7.092,7.092,0,0,1,48,27.4a63.18,63.18,0,0,0-.632-8.892L44.99,1.858A1,1,0,0,0,44,1H24a1,1,0,0,0-1,1,7.05,7.05,0,0,1-3.919,6.341l-.453.227A6.562,6.562,0,0,0,20.46,20.907l-1.323.772a16.4,16.4,0,0,0,1.8,29.24l2.243.961A3,3,0,0,1,25,54.638V62A1,1,0,0,0,26,63ZM23.97,50.042l-2.242-.961a14.4,14.4,0,0,1-1.583-25.674L24.5,20.864A1,1,0,0,0,24,19H21.562a4.562,4.562,0,0,1-2.04-8.643l.454-.227A9.034,9.034,0,0,0,24.946,3H43.133l2.255,15.788A61.11,61.11,0,0,1,46,27.4a9.078,9.078,0,0,0,1.7,5.3,17.725,17.725,0,0,1,0,20.6A9.068,9.068,0,0,0,46,58.6V61H27V54.638A4.994,4.994,0,0,0,23.97,50.042Z"/></svg>
