<svg id="Layer_1" enable-background="new 0 0 512 512" viewBox="0 0 512 512" xmlns="http://www.w3.org/2000/svg"><path d="m491 324.43h-470c-3.31 0-6 2.69-6 6s2.69 6 6 6h224.61l-87.51 151.57c-1.07 1.86-1.07 4.14 0 6s3.05 3 5.2 3h185.41c2.14 0 4.12-1.14 5.2-3 1.07-1.86 1.07-4.14 0-6l-87.51-151.57h224.6c3.31 0 6-2.69 6-6s-2.69-6-6-6zm-317.31 160.57 82.31-142.57 82.31 142.57zm-48.5-281.9c8.45 0 15.62-5.51 18.14-13.12h25.08l28.3 49.02-12.54 21.72c-7.85-1.62-16.21 1.84-20.44 9.15-5.27 9.13-2.13 20.85 7 26.12 2.95 1.7 6.22 2.57 9.53 2.57 1.66 0 3.33-.22 4.98-.66 4.93-1.32 9.06-4.49 11.61-8.91s3.23-9.58 1.91-14.51c-.79-2.93-2.23-5.57-4.2-7.77l12.56-21.71h60.07c2.14 0 4.12-1.14 5.2-3l30.03-52.02h56.58l11.76 20.63c-3.05 3.39-4.93 7.86-4.93 12.77 0 10.54 8.58 19.12 19.12 19.12s19.12-8.58 19.12-19.12-8.58-19.12-19.12-19.12c-1.29 0-2.56.13-3.78.38l-11.76-20.64 30.05-52.04c1.07-1.86 1.07-4.14 0-6l-29.98-51.94 13.01-21.29c1.4.33 2.84.51 4.34.51 10.54 0 19.12-8.58 19.12-19.12s-8.6-19.12-19.14-19.12-19.12 8.58-19.12 19.12c0 4.71 1.72 9.01 4.55 12.35l-13.11 21.46h-60.17c-2.14 0-4.12 1.14-5.2 3l-30.03 52.02h-60.07c-2.14 0-4.12 1.14-5.2 3l-30.03 52.02h-25.08c-2.52-7.61-9.7-13.12-18.14-13.12-10.54 0-19.12 8.58-19.12 19.12-.02 10.55 8.56 19.13 19.1 19.13zm61.28 79.9c-.95 1.65-2.49 2.83-4.32 3.32-1.84.49-3.76.24-5.4-.71-3.4-1.96-4.57-6.33-2.61-9.73s6.33-4.57 9.73-2.61c1.65.95 2.83 2.49 3.32 4.32s.23 3.76-.72 5.41zm205.61-59.62c0 3.93-3.2 7.12-7.12 7.12-3.93 0-7.12-3.19-7.12-7.12s3.19-7.12 7.12-7.12c3.92-.01 7.12 3.19 7.12 7.12zm-5.27-196.38c3.93 0 7.12 3.19 7.12 7.12s-3.2 7.12-7.12 7.12c-3.93 0-7.12-3.19-7.12-7.12s3.19-7.12 7.12-7.12zm-84.39 52.93h56.61l28.3 49.02-28.3 49.02h-56.61l-28.3-49.02zm-95.3 55.03h56.61l28.3 49.02-28.31 49.02h-56.61l-28.3-49.02zm-81.93 41.9c3.93 0 7.12 3.19 7.12 7.12s-3.2 7.12-7.12 7.12-7.12-3.19-7.12-7.12 3.2-7.12 7.12-7.12z"/></svg>