<?xml version="1.0" encoding="UTF-8"?>
<svg xmlns="http://www.w3.org/2000/svg" viewBox="0 0 64 64" width="512" height="512"><g id="Layer_31" data-name="Layer 31"><path d="M4.65,32.464,2.417,36.929a3.951,3.951,0,0,0,2.575,5.6l1.14.284,1.225,6.739A5.414,5.414,0,0,0,12.687,54a5.3,5.3,0,0,0,.765-.055l6.046-.863A10.872,10.872,0,0,1,21,58.605V63h2v-4.4a12.85,12.85,0,0,0-1.436-5.9L25.2,51.98,24.8,50.02l-4.975.994-6.661.952A3.447,3.447,0,0,1,9.324,49.2L7.983,41.821a1,1,0,0,0-.741-.791l-1.765-.442a1.95,1.95,0,0,1-1.271-2.764L7.9,30.447a1,1,0,0,0,.053-.763A18.472,18.472,0,0,1,7,23.838a9.293,9.293,0,0,1,2.014-5.782l4.813,13.7A46.5,46.5,0,0,0,38.375,58.7l.635,4.443,1.98-.284-.462-3.232c.556.223,1.109.449,1.675.651A46.6,46.6,0,0,0,57.922,63H62a1,1,0,0,0,.388-1.922L53.01,57.129a21.1,21.1,0,0,1-4.292-2.445,50.449,50.449,0,0,0,13.172,3.31A1.032,1.032,0,0,0,62,58a1,1,0,0,0,.446-1.9,30.349,30.349,0,0,1-8.26-6.068,17.262,17.262,0,0,0,7.689,2.955,1,1,0,0,0,.749-1.773,19.874,19.874,0,0,1-6.58-9.629l-.477-1.524a165.6,165.6,0,0,1-4.306-16.855A27.7,27.7,0,0,0,24.169,1,23.2,23.2,0,0,0,1,24.169,11.213,11.213,0,0,0,4.65,32.464ZM24.169,3A25.7,25.7,0,0,1,49.3,23.6a167.609,167.609,0,0,0,4.358,17.058l.477,1.525a21.85,21.85,0,0,0,4.452,7.934,15.328,15.328,0,0,1-7.762-6.6L43.865,31.5a1,1,0,0,0-1.777.911l4.412,9.8A32.491,32.491,0,0,0,57.077,55.181a47.877,47.877,0,0,1-16.448-7.007,46.064,46.064,0,0,1-6.948-15.892l-1.7-7.5-1.952.444,1.7,7.5a48.092,48.092,0,0,0,4.58,12.185A48.167,48.167,0,0,1,24.09,29.1L21.9,24.565l-1.8.87,2.189,4.535A49.9,49.9,0,0,0,43.078,52.009a23.188,23.188,0,0,0,9.156,6.964l4.793,2.018a44.735,44.735,0,0,1-41.313-29.9L10.581,16.484l2.06-1.716-1.282-1.536-2.282,1.9A11.3,11.3,0,0,0,5,23.838a20.471,20.471,0,0,0,.923,6.08l-.337.674A9.23,9.23,0,0,1,3,24.169,21.193,21.193,0,0,1,24.169,3Z"/><path d="M18,13a2.665,2.665,0,0,1,2.607,2.138L21.02,17.2a1,1,0,0,0,1.96,0l.413-2.058A2.665,2.665,0,0,1,26,13a1,1,0,0,0,0-2,2.665,2.665,0,0,1-2.607-2.138L22.98,6.8a1,1,0,0,0-1.96,0l-.413,2.058A2.665,2.665,0,0,1,18,11a1,1,0,0,0,0,2Zm4-2.273A4.7,4.7,0,0,0,23.122,12,4.7,4.7,0,0,0,22,13.273,4.7,4.7,0,0,0,20.878,12,4.7,4.7,0,0,0,22,10.727Z"/><path d="M62,26a2.665,2.665,0,0,1-2.607-2.138L58.98,21.8a1,1,0,0,0-1.96,0l-.413,2.058A2.665,2.665,0,0,1,54,26a1,1,0,0,0,0,2,2.665,2.665,0,0,1,2.607,2.138L57.02,32.2a1,1,0,0,0,1.96,0l.413-2.058A2.665,2.665,0,0,1,62,28a1,1,0,0,0,0-2Zm-4,2.273A4.7,4.7,0,0,0,56.878,27,4.7,4.7,0,0,0,58,25.727,4.7,4.7,0,0,0,59.122,27,4.7,4.7,0,0,0,58,28.273Z"/><path d="M47,8a2.665,2.665,0,0,1,2.607,2.138L50.02,12.2a1,1,0,0,0,1.96,0l.413-2.058A2.665,2.665,0,0,1,55,8a1,1,0,0,0,0-2,2.665,2.665,0,0,1-2.607-2.138L51.98,1.8a1,1,0,0,0-1.96,0l-.413,2.058A2.665,2.665,0,0,1,47,6a1,1,0,0,0,0,2Zm4-2.273A4.7,4.7,0,0,0,52.122,7,4.7,4.7,0,0,0,51,8.273,4.7,4.7,0,0,0,49.878,7,4.7,4.7,0,0,0,51,5.727Z"/></g></svg>
