<svg id="Immunity_Boost" viewBox="0 0 64 64" xmlns="http://www.w3.org/2000/svg" data-name="Immunity Boost"><path d="m26 62c-.13 0-.25-.02-.37-.07-8.26-3.3-23.63-9.45-23.63-25.97v-11.96c0-.55.45-1 1-1s1 .45 1 1v11.96c0 13.83 11.29 19.65 22 23.96 2.61-1.05 5.62-2.32 8.46-3.89.49-.27 1.09-.09 1.36.39s.09 1.09-.39 1.36c-3.07 1.7-6.3 3.05-9.05 4.14-.12.05-.24.07-.37.07z"/><path d="m49 32.53c-.55 0-1-.45-1-1v-18.55c-9.9-.42-19.5-6.91-22-8.73-2.5 1.82-12.1 8.31-22 8.73v7.02c0 .55-.45 1-1 1s-1-.45-1-1v-8c0-.55.45-1 1-1 10.93 0 22.27-8.7 22.39-8.79.36-.28.87-.28 1.23 0 .11.09 11.46 8.79 22.39 8.79.55 0 1 .45 1 1v19.53c0 .55-.45 1-1 1z"/><path d="m26 56.6c-.13 0-.26-.03-.38-.08-4.31-1.78-7.37-3.37-9.93-5.13-.45-.31-.57-.94-.25-1.39.31-.45.94-.57 1.39-.25 2.36 1.63 5.2 3.11 9.17 4.77 2.75-1.15 4.92-2.2 6.8-3.28.48-.28 1.09-.11 1.37.37s.11 1.09-.37 1.37c-2.05 1.18-4.4 2.31-7.42 3.56-.12.05-.25.08-.38.08z"/><path d="m13.14 49.03c-.25 0-.5-.09-.69-.28-3.66-3.54-5.45-7.72-5.45-12.79v-19.41c0-.49.35-.9.83-.99 7.41-1.27 14.23-5.14 17.63-7.33.33-.21.75-.21 1.08 0 3.4 2.19 10.21 6.05 17.63 7.33.48.08.83.5.83.99v16.11c0 .55-.45 1-1 1s-1-.45-1-1v-15.28c-7.06-1.39-13.46-4.89-17-7.12-3.54 2.22-9.94 5.73-17 7.12v18.58c0 4.5 1.58 8.21 4.83 11.35.4.38.41 1.02.03 1.41-.2.2-.46.31-.72.31z"/><path d="m29 44h-6c-.55 0-1-.45-1-1v-7h-7c-.55 0-1-.45-1-1v-6c0-.55.45-1 1-1h7v-7c0-.55.45-1 1-1h6c.55 0 1 .45 1 1v7h7c.55 0 1 .45 1 1v6c0 .55-.45 1-1 1h-7v7c0 .55-.45 1-1 1zm-5-2h4v-7c0-.55.45-1 1-1h7v-4h-7c-.55 0-1-.45-1-1v-7h-4v7c0 .55-.45 1-1 1h-7v4h7c.55 0 1 .45 1 1z"/><path d="m49.25 62.01c-1.3 0-2.72-.5-4.04-1.91-.2-.21-.3-.51-.26-.8.03-.29.19-.55.44-.72 0 0 .4-.28.79-.76-1.06-.19-2.07-.56-3.01-1.08-.15.3-.24.58-.28.85-.07.54-.57.93-1.12.85-.09-.01-2.33-.33-3.64-2.05-.78-1.02-1.07-2.29-.87-3.77.04-.29.2-.54.44-.7s.54-.21.81-.13c0 0 .1.03.27.05-.35-.83-.58-1.71-.7-2.61-.61.13-1.12.34-1.5.61-.44.32-1.05.23-1.39-.21-.06-.08-1.48-1.99-1.14-4.28.21-1.38.99-2.58 2.33-3.55.23-.17.53-.23.8-.17.28.06.52.24.66.49 0 0 .44.77 1.26 1.31.45-.87 1.02-1.68 1.7-2.38-.26-.16-.52-.28-.77-.35-.26-.07-.48-.24-.61-.47s-.16-.51-.09-.76c.49-1.72 2.47-4.69 6.48-3.59.28.08.51.27.64.54s.13.57.01.83c0 0-.16.38-.22.9.99-.18 1.99-.21 3.02-.07.04-.86-.08-1.59-.35-2.12-.12-.24-.14-.52-.06-.77s.27-.46.51-.58c1.76-.86 5.6-1.44 7.61 2.5.13.26.15.57.03.84-.11.27-.34.48-.61.57-.01 0-1.42.5-2.09 1.72.49.4.93.84 1.34 1.32.17-.31.27-.61.32-.89.08-.54.58-.92 1.14-.83.09.01 2.32.37 3.61 2.12.76 1.04 1.03 2.31.8 3.79-.04.28-.21.54-.45.69s-.54.2-.82.11c0 0-1.21-.33-2.31.14.06.44.09.88.09 1.32 0 .32-.02.65-.06 1 .8.49 1.94 1.03 2.99.96.54-.04 1.03.38 1.06.93 0 .1.14 2.44-1.38 4.18-.93 1.06-2.25 1.66-3.92 1.76-.29.02-.57-.09-.78-.3s-.31-.49-.29-.78c0 0 .03-.52-.13-1.16-.88 1-1.96 1.82-3.16 2.4.16.72.45 1.49.94 2.03.18.2.28.46.27.73s-.13.52-.33.7c-.82.73-2.3 1.55-3.97 1.55zm-1.8-2.6c1.45 1 2.87.53 3.71.07-.46-.79-.77-1.78-.92-2.94-.06-.46.2-.9.63-1.07 1.64-.63 3.04-1.8 3.96-3.3.17-.28.47-.46.8-.48s.64.13.85.39c.68.88.97 1.86 1.08 2.61 1.72-.48 2.24-1.85 2.39-2.78-1.4-.22-2.71-.95-3.65-1.59-.32-.22-.48-.6-.42-.99.08-.48.12-.92.12-1.33 0-.55-.06-1.1-.17-1.63-.08-.38.07-.78.39-1.01 1.14-.83 2.41-.96 3.33-.92-.14-1.43-1.15-2.1-1.94-2.4-.26.63-.67 1.26-1.22 1.89-.21.24-.51.37-.83.34s-.6-.2-.77-.47c-.6-.96-1.36-1.77-2.28-2.39-.35-.24-.51-.68-.4-1.09.45-1.62 1.61-2.61 2.51-3.15-1.12-1.35-2.62-1.27-3.55-1.04.28 1.16.19 2.39.04 3.31-.05.27-.21.52-.44.67s-.52.2-.79.14c-1.5-.36-2.94-.29-4.31.14-.27.09-.57.05-.81-.09s-.42-.39-.47-.66c-.15-.73-.11-1.41-.02-1.96-1.41-.01-2.26.86-2.67 1.56.48.27.95.62 1.42 1.07.21.2.32.48.31.76-.01.29-.15.55-.37.73-1.09.88-1.93 2.05-2.43 3.37-.19.5-.74.76-1.25.59-1.12-.37-1.94-1.08-2.47-1.67-.43.48-.7 1-.78 1.56-.12.77.1 1.52.34 2.04.72-.31 1.58-.51 2.56-.58.27-.02.55.07.75.26s.32.45.32.73c.02 1.48.44 2.92 1.24 4.18.18.28.2.62.08.93-.13.3-.4.52-.72.59-.5.1-.98.13-1.38.12.17 1.43 1.19 2.07 1.98 2.36.2-.49.48-.98.84-1.48.32-.44.94-.54 1.38-.23 1.29.9 2.81 1.4 4.39 1.44.32 0 .61.17.79.43s.23.59.13.89c-.3.89-.82 1.6-1.28 2.1z"/><path d="m53 48c-2.76 0-5-2.24-5-5 0-.55.45-1 1-1s1 .45 1 1c0 1.65 1.35 3 3 3 .55 0 1 .45 1 1s-.45 1-1 1z"/><path d="m47 53c-.55 0-1-.45-1-1 0-1.65-1.35-3-3-3-.55 0-1-.45-1-1s.45-1 1-1c2.76 0 5 2.24 5 5 0 .55-.45 1-1 1z"/></svg>