<svg id="Layer_1" enable-background="new 0 0 500 500" viewBox="0 0 500 500" xmlns="http://www.w3.org/2000/svg"><path clip-rule="evenodd" d="m77.574 264.368c-3.012 2.248-7.312 1.647-9.579-1.386-2.248-3.028-1.629-7.313 1.395-9.575l6.286-4.687c-21.875-1.567-39.03-8.972-46.944-20.883-5.354-8.041-5.843-17.462-1.368-25.86 9.26-17.354 37.184-27.676 76.067-27.676 3.767 0 6.832 3.047 6.842 6.822.01 3.774-3.039 6.848-6.811 6.858-39.228.128-58.797 10.64-64.022 20.443-2.128 3.976-1.899 7.962.682 11.846 4.579 6.876 17.161 13.988 38.681 15l-7.675-6.502c-2.883-2.443-3.247-6.756-.806-9.638 2.435-2.883 6.759-3.246 9.642-.803l20.251 17.134c2.076 1.012 3.59 3.037 3.819 5.498.302 3.23-1.686 6.128-4.626 7.114zm395.066-26.317c-9.279 17.368-37.163 27.675-76.067 27.675-3.767 0-6.832-3.044-6.842-6.811-.01-3.774 3.039-6.848 6.811-6.866 39.228-.118 58.798-10.642 64.032-20.435 2.118-3.986 1.889-7.97-.692-11.846-4.579-6.884-17.171-13.996-38.692-15l7.691 6.492c4.859 4.115 1.895 12.065-4.423 12.065-1.561 0-3.133-.529-4.418-1.614l-20.251-17.134c-2.082-1.012-3.59-3.037-3.819-5.508-.302-3.218 1.686-6.118 4.621-7.112l21.843-16.295c3.023-2.262 7.311-1.632 9.569 1.387 2.258 3.026 1.634 7.313-1.395 9.573l-6.28 4.687c21.875 1.577 39.025 8.982 46.944 20.883 5.349 8.042 5.843 17.471 1.368 25.859zm-99.435 123.066c-21.519 20.344-54.279 48.734-81.973 66.686-20.007 12.966-41.226 25.194-60.868 26.791-16.221 1.32-34.124-5.048-51.128-7.496-29.638-4.267-61.226-3.339-91.417-3.028v-57.639c13.523-3.414 26.497-6.081 39.988-9.756 7.769-2.116 14.491-5.49 20.99-8.754 12.04-6.028 21.547-10.797 34.461-6.902l53.178 16.031c4.969 1.494 7.789 6.756 6.291 11.726-1.623 5.388-7.409 7.167-12.29 6.146-10.946-2.304-24.778-5.984-35.06-6.975-4.516-.439-9.038-.311-13.809.382-3.736.531-6.338 4.004-5.796 7.742.536 3.74 3.991 6.329 7.743 5.791 3.684-.528 7.139-.63 10.568-.301 9.084.873 23.332 4.595 33.546 6.748 10.415 2.196 21.118-2.028 26.256-11.079 6.582-.667 12.956-2.006 18.982-4.023 23.4-7.827 59.385-28.373 90.22-45.712 3.439-1.933 7.597-1.157 10.105 1.888l.682.839c2.661 3.226 2.37 8.013-.669 10.895zm10.547-20.435c-6.697-8.124-18.211-10.268-27.375-5.106-30.05 16.943-65.962 37.336-87.853 44.655-3.809 1.274-7.794 2.231-11.91 2.869-1.14-8.743-7.259-16.449-16.229-19.148l-53.183-16.039c-18.123-5.464-31.548 1.267-44.53 7.787-5.901 2.955-12.015 6.018-18.461 7.779-14.777 4.024-29.806 7.024-44.983 11.033-2.997.794-5.084 3.512-5.084 6.612v69.83c0 3.806 3.075 6.821 6.863 6.839 32.34.007 64.394-1.762 96.277 2.837 18.06 2.605 35.193 9.13 54.192 7.596 22.66-1.844 45.685-15 67.195-28.952 28.321-18.361 62.141-47.545 83.935-68.227 8.237-7.807 9.038-20.772 1.826-29.527zm-53.131-91.186c0 3.775-3.06 6.838-6.837 6.838h-80.99c-3.788 0-6.842-3.063-6.842-6.838 0-3.776 3.054-6.84 6.842-6.84h80.99c3.777 0 6.837 3.064 6.837 6.84zm-143.06 18.701c-1.832 0-3.596-.738-4.881-2.051l-11.354-11.59c-2.633-2.699-2.586-7.03.109-9.674 2.701-2.647 7.035-2.6 9.668.099l6.463 6.612 18.388-18.748c2.643-2.699 6.973-2.736 9.663-.091 2.701 2.644 2.747 6.966.104 9.665l-23.275 23.728c-1.288 1.316-3.043 2.05-4.885 2.05zm55.233-66.311h80.99c3.778 0 6.837 3.055 6.837 6.839 0 3.774-3.06 6.84-6.837 6.84h-80.99c-3.788 0-6.842-3.065-6.842-6.84 0-3.784 3.054-6.839 6.842-6.839zm-71.467 11.892c-2.633-2.699-2.586-7.03.109-9.674 2.701-2.636 7.035-2.59 9.668.108l6.463 6.601 18.388-18.746c2.643-2.691 6.973-2.736 9.663-.091 2.701 2.644 2.747 6.975.104 9.675l-23.275 23.725c-2.685 2.741-7.081 2.734-9.766-.008zm43.635-86.218h20.881c3.783 0 6.842-3.055 6.842-6.839v-20.881h18.675v20.881c0 3.784 3.059 6.839 6.837 6.839h20.891v18.675h-20.891c-3.778 0-6.837 3.065-6.837 6.839v20.891h-18.675v-20.891c0-3.774-3.059-6.839-6.842-6.839h-20.881zm-6.838 32.354h20.881v20.89c0 3.775 3.065 6.84 6.837 6.84h32.354c3.777 0 6.837-3.065 6.837-6.84v-20.89h20.891c3.777 0 6.837-3.065 6.837-6.84v-32.354c0-3.775-3.06-6.838-6.837-6.838h-20.891v-20.882c0-3.774-3.06-6.839-6.837-6.839h-32.354c-3.772 0-6.837 3.065-6.837 6.839v20.883h-20.881c-3.778 0-6.842 3.063-6.842 6.838v32.354c0 3.774 3.065 6.839 6.842 6.839zm-76.212-50.618-.01 74.161c0 61.269 42.985 120.522 118.105 162.924 75.11-42.403 118.095-101.655 118.095-162.996l-.005-74.09c-42.761-15.986-82.446-36.977-118.089-62.473-35.655 25.497-75.341 46.487-118.096 62.474zm21.344 173.099c22.177 29.681 53.62 55.863 93.447 77.812 2.052 1.129 4.544 1.13 6.603 0 69.365-38.076 128.48-99.268 128.475-176.904l-.01-78.767c0-2.882-1.795-5.443-4.496-6.429-44.899-16.34-86.365-38.289-123.24-65.245-2.404-1.758-5.672-1.758-8.07 0-36.876 26.956-78.336 48.905-123.235 65.245-2.701.985-4.496 3.546-4.496 6.429v78.019c-.219 34.896 11.608 68.489 35.022 99.84z" fill-rule="evenodd"/></svg>