<svg id="_x33_0" enable-background="new 0 0 64 64" height="512" viewBox="0 0 64 64" width="512" xmlns="http://www.w3.org/2000/svg"><path d="m49.63 44.877-7.601-1.899c-1.783-.447-3.029-2.043-3.029-3.882v-3.024c0-1.068.416-2.073 1.172-2.829l4.002-4.002c3.112-3.113 4.826-7.251 4.826-11.651 0-9.148-7.431-16.59-16.563-16.59h-5.437c-7.72 0-14 6.28-14 14 0 3.009-.994 5.992-2.8 8.4l-.635.846 3.435 2.289v7.079c0 2.97 2.416 5.386 5.386 5.386.502 0 1-.07 1.479-.207l5.135-1.467v1.77c0 1.839-1.246 3.436-3.029 3.882l-7.601 1.899c-7.872 1.968-13.37 9.01-13.37 17.123v1h62v-1c0-8.113-5.498-15.155-13.37-17.123zm-20.964-41.877c.725.535 1.305 1.219 1.703 2h-2.764c-.67 0-1.292-.333-1.664-.891l-.649-.974c.56-.079 1.127-.135 1.708-.135zm10.435 48c.405 1.986 1.992 3.539 3.991 3.908.429 2.324 2.462 4.092 4.908 4.092 1.018 0 1.917-.512 2.459-1.29 1.264.694 2.139 1.893 2.427 3.29h-13.163c-.765-2.068-2.563-3.561-4.723-3.916v-1.084c0-1.302-.839-2.402-2-2.816v-3.468c1.742.841 3.649 1.284 5.605 1.284zm5.899 3c0-.552.448-1 1-1 1.654 0 3 1.346 3 3 0 .552-.448 1-1 1-1.654 0-3-1.346-3-3zm-27.561 1.539c.525.871 1.472 1.461 2.561 1.461 2.757 0 5-2.243 5-5 0-.119-.022-.232-.035-.348 2.415-.588 4.512-1.936 6.035-3.82v5.351c-1.161.414-2 1.514-2 2.816v4c0 .352.072.686.184 1h-16.04c.887-1.303 1.476-2.792 1.721-4.358.904-.244 1.769-.618 2.574-1.102zm1.561-1.539c0-1.654 1.346-3 3-3 .552 0 1 .448 1 1 0 1.654-1.346 3-3 3-.552 0-1-.448-1-1zm12 6v-4c0-.552.448-1 1-1s1 .448 1 1v4c0 .552-.448 1-1 1s-1-.448-1-1zm4 0v-.863c1.058.265 1.964.932 2.524 1.863h-2.708c.112-.314.184-.648.184-1zm-3-25c-.552 0-1-.448-1-1v-4c0-.552.448-1 1-1s1 .448 1 1v4c0 .552-.448 1-1 1zm0-16c-.552 0-1-.448-1-1v-4c0-.552.448-1 1-1s1 .448 1 1v4c0 .552-.448 1-1 1zm-17.146 27.816 7.601-1.899c2.676-.669 4.545-3.063 4.545-5.821v-4.422l-7.685 2.196c-.302.086-.614.13-.93.13-1.866 0-3.385-1.519-3.385-3.386v-8.149l-2.596-1.73c1.68-2.586 2.596-5.648 2.596-8.735 0-5.293 3.448-9.788 8.213-11.378l1.065 1.597c.743 1.115 1.987 1.781 3.327 1.781h3.357c.022.2.038.401.038.605v3.579c-1.161.414-2 1.514-2 2.816v4c0 1.302.839 2.402 2 2.816v4.277c-1.479-1.322-3.401-2.093-5.472-2.093h-.713c-.342-.96-1.151-1.696-2.159-1.922l-1.656-3.314v-1.527c0-.998.555-1.896 1.447-2.342l-.895-1.789c-1.573.788-2.552 2.371-2.552 4.13v.377l-1.684-.561-.633 1.896 2.607.869 1.092 2.183h-.382c-1.654 0-3 1.346-3 3s1.346 3 3 3h1c0 .853-.474 1.619-1.236 2l-.422.211c-1.445.722-2.342 2.174-2.342 3.789h2c0-.853.474-1.619 1.236-2l.422-.211c1.445-.722 2.342-2.174 2.342-3.789v-.184c.847-.302 1.514-.969 1.816-1.816h.713c1.97 0 3.766.918 4.931 2.439-.871.526-1.46 1.472-1.46 2.561v4c0 1.302.839 2.402 2 2.816v6.993c-1.093 3.128-3.726 5.379-6.964 6.001-.535-.498-1.248-.81-2.036-.81-2.548 0-4.633 1.923-4.938 4.389-1.399 1.037-3.105 1.611-4.852 1.611-1.844 0-3.652-.634-5.092-1.786l-.896-.717c2.096-2.741 5.088-4.794 8.632-5.681zm7.146-21.816h-2c-.552 0-1-.448-1-1s.448-1 1-1h2c.552 0 1 .448 1 1s-.448 1-1 1zm-16.896 29.165.765.612c1.793 1.433 4.045 2.223 6.341 2.223.185 0 .369-.014.553-.024-.354 1.507-1.106 2.9-2.188 4.024h-7.544c.156-2.463.889-4.789 2.073-6.835zm49.821 6.835c-.332-2.305-1.806-4.274-3.951-5.259-.138-2.634-2.306-4.741-4.974-4.741-1.259 0-2.336.782-2.78 1.884-1.192-.323-2.082-1.357-2.194-2.621l1.805-2.708-1.664-1.109-1.702 2.554h-.859c-1.985 0-3.911-.541-5.605-1.558v-10.626c1.161-.414 2-1.514 2-2.816v-4c0-1.302-.839-2.402-2-2.816v-.997c.431-1.186 1.275-2.176 2.356-2.799.502.953 1.492 1.612 2.643 1.612h2c1.654 0 3-1.346 3-3s-1.346-3-3-3h-2c-1.408 0-2.583.978-2.905 2.288-.777.338-1.484.806-2.095 1.379v-1.851c1.161-.414 2-1.514 2-2.816v-3c2.206 0 4-1.794 4-4h2v-2h-1.976c.055-.439.247-.857.562-1.172l1.121-1.121-1.414-1.414-1.121 1.121c-.745.744-1.172 1.775-1.172 2.828v1.758c0 1.103-.897 2-2 2h-.184c-.302-.847-.969-1.514-1.816-1.816v-3.579c0-1.687-.554-3.291-1.529-4.605h.966c8.03 0 14.563 6.545 14.563 14.59 0 3.866-1.506 7.502-4.24 10.236l-4.002 4.002c-1.134 1.134-1.758 2.641-1.758 4.243v3.024c0 2.759 1.869 5.152 4.545 5.821l7.601 1.899c6.654 1.665 11.395 7.418 11.823 14.185zm-17.925-39c0-.552.448-1 1-1h2c.552 0 1 .448 1 1s-.448 1-1 1h-2c-.552 0-1-.448-1-1z"/></svg>