<svg id="Outline" viewBox="0 0 32 32" xmlns="http://www.w3.org/2000/svg"><path d="m29 2.5c.2763672 0 .5-.2236328.5-.5s-.2236328-.5-.5-.5h-26c-.2763672 0-.5.2236328-.5.5s.2236328.5.5.5h.5253296c.2653809 6.6598511 5.7508545 12 12.4746704 12 2.6308594 0 5.1386719-.8037109 7.2519531-2.3242188.2246094-.1621094.2753906-.4736328.1142578-.6982422-.1621094-.2246094-.4765625-.2753906-.6982422-.1142578-1.9423828 1.3984375-4.2480469 2.1367188-6.6679688 2.1367188-6.1738281 0-11.2265625-4.8896484-11.4892578-11h1.0145874c.2634888 5.5571289 4.8533936 10 10.4746704 10s10.2111816-4.4428711 10.4746704-10h1.0145874c-.0947266 2.2363281-.8242188 4.359375-2.1259766 6.1679688-.1611328.2246094-.1103516.5361328.1142578.6982422.2216797.1601562.5361328.1103516.6982422-.1142578 1.423584-1.9785156 2.2095337-4.3045654 2.3051147-6.7519531h.519104zm-13 9c-5.0703125 0-9.2255859-3.9931641-9.4873047-9h18.9746094c-.2617188 5.0068359-4.4169922 9-9.4873047 9z"/><path d="m12.5 8.5c1.1025391 0 2-.8974609 2-2s-.8974609-2-2-2-2 .8974609-2 2 .8974609 2 2 2zm0-3c.5517578 0 1 .4482422 1 1s-.4482422 1-1 1-1-.4482422-1-1 .4482422-1 1-1z"/><path d="m20 7.5c.8271484 0 1.5-.6728516 1.5-1.5s-.6728516-1.5-1.5-1.5-1.5.6728516-1.5 1.5.6728516 1.5 1.5 1.5zm0-2c.2753906 0 .5.2246094.5.5s-.2246094.5-.5.5-.5-.2246094-.5-.5.2246094-.5.5-.5z"/><circle cx="17" cy="9" r=".5"/><circle cx="9" cy="4" r=".5"/><circle cx="23" cy="5" r=".5"/><circle cx="16" cy="4" r=".5"/><path d="m19 19.5c0-1.6542969-1.3457031-3-3-3s-3 1.3457031-3 3c0 1.1992798.7119141 2.2285767 1.7312622 2.708374-.1442871.2304077-.2312622.5003052-.2312622.791626 0 .7338867.5305176 1.343689 1.2277222 1.4724731.1682129.2744751.4668579 1.0209351-.1749878 2.303894-1.1474609 2.2958984.0419922 3.5263672.09375 3.5771484.0966797.0966797.2226562.1445312.3486328.1445312.125 0 .25-.046875.3476562-.1416016.1962891-.1884766.2021484-.5039062.0175781-.703125-.0302734-.0322266-.7236328-.8095703.0869141-2.4296875.6813354-1.3632202.5357666-2.3409424.2966309-2.9289551.4495239-.2593384.7561035-.739502.7561035-1.2946777 0-.2913208-.0869751-.5611572-.2312622-.7915649 1.0193481-.4797974 1.7312622-1.5091553 1.7312622-2.7084351zm-2.5 3.5c0 .2753906-.2246094.5-.5.5s-.5-.2246094-.5-.5.2246094-.5.5-.5.5.2246094.5.5zm-.5-1.5c-1.1025391 0-2-.8974609-2-2s.8974609-2 2-2 2 .8974609 2 2-.8974609 2-2 2z"/><path d="m11.5 17.5c0-1.6542969-1.3457031-3-3-3s-3 1.3457031-3 3c0 1.1992798.7119141 2.2285767 1.7312622 2.708374-.1442871.2304077-.2312622.5003052-.2312622.791626 0 .7338867.5305176 1.343689 1.2277222 1.4724731.1682129.2744751.4668579 1.0209351-.1749878 2.303894-1.1474609 2.2958984.0419922 3.5263672.09375 3.5771484.0966797.0966797.2226562.1445312.3486328.1445312.125 0 .25-.046875.3476562-.1416016.1962891-.1884766.2021484-.5039062.0175781-.703125-.0302734-.0322266-.7236328-.8095703.0869141-2.4296875.6813354-1.3632202.5357666-2.3409424.2966309-2.9289551.4495239-.2593384.7561035-.739502.7561035-1.2946777 0-.2913208-.0869751-.5611572-.2312622-.7915649 1.0193481-.4797974 1.7312622-1.5091553 1.7312622-2.7084351zm-2.5 3.5c0 .2753906-.2246094.5-.5.5s-.5-.2246094-.5-.5.2246094-.5.5-.5.5.2246094.5.5zm-.5-1.5c-1.1025391 0-2-.8974609-2-2s.8974609-2 2-2 2 .8974609 2 2-.8974609 2-2 2z"/><path d="m26.5 17.5c0-1.6542969-1.3457031-3-3-3s-3 1.3457031-3 3c0 1.1992798.7119141 2.2285767 1.7312622 2.708374-.1442871.2304077-.2312622.5003052-.2312622.791626 0 .7338867.5305176 1.343689 1.2277222 1.4724731.1682129.2744751.4668579 1.0209351-.1749878 2.303894-1.1474609 2.2958984.0419922 3.5263672.09375 3.5771484.0966797.0966797.2226562.1445312.3486328.1445312.125 0 .25-.046875.3476562-.1416016.1962891-.1884766.2021484-.5039062.0175781-.703125-.0302734-.0322266-.7236328-.8095703.0869141-2.4296875.6813354-1.3632202.5357666-2.3409424.2966309-2.9289551.4495239-.2593384.7561035-.739502.7561035-1.2946777 0-.2913208-.0869751-.5611572-.2312622-.7915649 1.0193481-.4797974 1.7312622-1.5091553 1.7312622-2.7084351zm-2.5 3.5c0 .2753906-.2246094.5-.5.5s-.5-.2246094-.5-.5.2246094-.5.5-.5.5.2246094.5.5zm-.5-1.5c-1.1025391 0-2-.8974609-2-2s.8974609-2 2-2 2 .8974609 2 2-.8974609 2-2 2z"/><path d="m24.8388062 10.8388062c.1953125-.1952515.1953125-.5118408 0-.7070923-.1952515-.1952515-.5118408-.1952515-.7070923 0s-.1952515.5118408 0 .7070923.5118408.1952515.7070923 0z"/></svg>