<svg id="Capa_1" enable-background="new 0 0 512 512" height="512" viewBox="0 0 512 512" width="512" xmlns="http://www.w3.org/2000/svg"><g><g><path d="m350.169 287.443c-11.284-17.543-27.175-31.562-45.956-40.542-4.983-2.386-10.953-.275-13.336 4.708-2.382 4.982-.274 10.953 4.708 13.335 31.775 15.193 52.307 47.756 52.307 82.956 0 50.67-41.223 91.894-91.893 91.894s-91.893-41.224-91.893-91.894c0-35.198 20.531-67.76 52.304-82.954 4.982-2.383 7.09-8.354 4.708-13.336s-8.353-7.091-13.335-4.707c-18.78 8.98-34.67 23-45.953 40.543-11.594 18.026-17.723 38.931-17.723 60.454 0 61.698 50.195 111.894 111.893 111.894s111.893-50.195 111.893-111.894c0-21.524-6.129-42.429-17.724-60.457z"/><path d="m380.976 241.558c-23.095-27.113-54.39-45.988-88.841-53.749v-64.435l12.159 12.159c6.825 6.825 15.899 10.584 25.552 10.584s18.727-3.759 25.551-10.584c6.825-6.825 10.584-15.899 10.584-25.552 0-9.651-3.758-18.726-10.583-25.552l-73.846-73.846c-6.825-6.824-15.9-10.583-25.552-10.583s-18.727 3.759-25.552 10.584l-73.846 73.846c-6.825 6.826-10.583 15.9-10.583 25.552s3.759 18.727 10.583 25.552c6.825 6.825 15.899 10.584 25.552 10.584s18.727-3.759 25.551-10.584l12.16-12.16v64.436c-34.451 7.761-65.746 26.636-88.841 53.748-25.229 29.618-39.123 67.385-39.123 106.344 0 90.483 73.615 164.098 164.099 164.098s164.099-73.615 164.099-164.1c0-38.959-13.894-76.725-39.123-106.342zm-124.976 250.442c-79.456 0-144.099-64.643-144.099-144.1 0-34.211 12.198-67.371 34.348-93.374 21.906-25.717 52.199-42.994 85.3-48.649 4.804-.821 8.316-4.984 8.316-9.857v-96.789c0-4.045-2.437-7.691-6.173-9.238-1.237-.513-2.536-.762-3.825-.762-2.602 0-5.16 1.016-7.073 2.929l-29.231 29.23c-3.047 3.048-7.099 4.727-11.409 4.727s-8.362-1.679-11.41-4.727c-3.047-3.047-4.726-7.099-4.726-11.409s1.678-8.361 4.726-11.409l73.847-73.846c3.047-3.047 7.099-4.726 11.409-4.726s8.362 1.679 11.41 4.727l73.846 73.846c3.048 3.048 4.726 7.1 4.726 11.409 0 4.311-1.678 8.362-4.726 11.409-3.047 3.048-7.1 4.727-11.409 4.727-4.31 0-8.362-1.679-11.409-4.727l-29.23-29.23c-2.861-2.859-7.161-3.715-10.898-2.168-3.737 1.548-6.173 5.194-6.173 9.239v96.788c0 4.873 3.513 9.036 8.316 9.857 33.101 5.655 63.394 22.933 85.3 48.649 22.149 26.002 34.348 59.163 34.348 93.374-.002 79.457-64.645 144.1-144.101 144.1z"/><path d="m199.896 336.829v22.145c0 10.437 8.491 18.928 18.928 18.928h6.852v6.853c0 10.437 8.491 18.928 18.928 18.928h22.144c10.437 0 18.928-8.491 18.928-18.928v-6.853h6.853c10.437 0 18.928-8.491 18.928-18.928v-22.145c0-10.437-8.491-18.928-18.928-18.928h-6.853v-6.853c0-10.438-8.491-18.929-18.928-18.929h-22.144c-10.437 0-18.928 8.491-18.928 18.929v6.853h-6.852c-10.437 0-18.928 8.492-18.928 18.928zm20 1.072h15.78c5.523 0 10-4.478 10-10v-15.781h20v15.781c0 5.522 4.477 10 10 10h15.78v20h-15.78c-5.523 0-10 4.478-10 10v15.78h-20v-15.78c0-5.522-4.477-10-10-10h-15.78z"/><circle cx="256" cy="246.011" r="10"/></g></g></svg>