<?xml version="1.0" encoding="UTF-8"?>
<svg xmlns="http://www.w3.org/2000/svg" id="Layer_1" data-name="Layer 1" viewBox="0 0 24 24">
  <path d="m12,0C5.383,0,0,5.383,0,12s5.383,12,12,12,12-5.383,12-12S18.617,0,12,0Zm0,23c-6.065,0-11-4.935-11-11S5.935,1,12,1s11,4.935,11,11-4.935,11-11,11Zm5.373-7.833c.184.206.166.521-.04.706-.097.087-2.415,2.127-5.333,2.127s-5.236-2.04-5.333-2.127c-.206-.184-.224-.5-.04-.706.183-.206.499-.224.706-.041.021.019,2.138,1.874,4.667,1.874s4.646-1.854,4.667-1.874c.206-.183.522-.165.706.041Zm-.873-8.167c-1.378,0-2.5,1.122-2.5,2.5,0,1.5,1.445,1.5,2.5,1.5s2.5,0,2.5-1.5c0-1.378-1.122-2.5-2.5-2.5Zm0,3c-1.353,0-1.5-.101-1.5-.5,0-.827.673-1.5,1.5-1.5s1.5.673,1.5,1.5c0,.399-.147.5-1.5.5Zm-6.5-.5c0-1.378-1.122-2.5-2.5-2.5s-2.5,1.122-2.5,2.5c0,1.5,1.445,1.5,2.5,1.5s2.5,0,2.5-1.5Zm-4,0c0-.827.673-1.5,1.5-1.5s1.5.673,1.5,1.5c0,.399-.147.5-1.5.5s-1.5-.101-1.5-.5Z"/>
</svg>
