<svg id="Capa_1" enable-background="new 0 0 512 512" viewBox="0 0 512 512" xmlns="http://www.w3.org/2000/svg"><g><path d="m504.5 490.3h-102.84c-4.143 0-7.5 3.358-7.5 7.5s3.357 7.5 7.5 7.5h102.84c4.143 0 7.5-3.358 7.5-7.5s-3.357-7.5-7.5-7.5z"/><path d="m366.66 490.3h-359.16c-4.143 0-7.5 3.358-7.5 7.5s3.357 7.5 7.5 7.5h359.16c4.143 0 7.5-3.358 7.5-7.5s-3.357-7.5-7.5-7.5z"/><path d="m504.5 244.296h-148.178c12.517-21.947 19.308-46.995 19.308-72.875v-112.931c0-4.142-3.357-7.5-7.5-7.5-50.305 0-83.685-6.658-108.232-21.588-2.394-1.457-5.399-1.456-7.795 0-11.951 7.269-25.885 12.501-42.598 15.997-4.055.848-6.654 4.822-5.806 8.877s4.822 6.651 8.876 5.806c16.655-3.485 30.912-8.599 43.425-15.592 25.229 14.102 57.963 20.812 104.63 21.449v105.48c0 38.614-16.811 75.174-46.122 100.306-3.145 2.696-3.508 7.431-.812 10.576 1.483 1.73 3.583 2.619 5.697 2.618 1.728 0 3.464-.594 4.878-1.806 8.354-7.163 15.789-15.163 22.238-23.818h157.991c4.143 0 7.5-3.358 7.5-7.5s-3.357-7.499-7.5-7.499z"/><path d="m7.5 259.296h158.049c8.79 11.828 19.383 22.402 31.556 31.235l43.851 31.81c4.495 3.261 9.763 4.892 15.034 4.891 5.27 0 10.543-1.631 15.045-4.892l24.64-17.88c3.353-2.433 4.098-7.123 1.665-10.475-2.435-3.353-7.122-4.098-10.476-1.666l-24.634 17.877c-3.731 2.703-8.742 2.705-12.466.003l-43.85-31.81c-34.154-24.785-54.545-64.774-54.545-106.97v-105.48c8.938-.124 17.39-.472 25.212-1.038 4.131-.299 7.237-3.891 6.938-8.022-.3-4.131-3.875-7.234-8.022-6.938-9.619.697-20.261 1.05-31.628 1.05-4.143 0-7.5 3.358-7.5 7.5v112.93c0 25.84 6.88 50.929 19.387 72.875h-148.256c-4.143 0-7.5 3.358-7.5 7.5s3.357 7.5 7.5 7.5z"/><path d="m504.5 316.57c-23.047 0-35.071 8.3-45.681 15.623-10.08 6.958-18.786 12.967-37.159 12.967-18.374 0-27.079-6.01-37.16-12.968-10.606-7.322-22.629-15.622-45.67-15.622-23.047 0-35.071 8.3-45.681 15.623-10.08 6.958-18.786 12.967-37.159 12.967-18.36 0-27.064-6.006-37.143-12.96-4.625-3.191-9.406-6.49-15.231-9.255-3.74-1.776-8.215-.183-9.991 3.56-1.776 3.742-.183 8.215 3.56 9.991 4.732 2.247 8.818 5.065 13.144 8.05 10.606 7.319 22.629 15.614 45.662 15.614 23.047 0 35.071-8.3 45.681-15.623 10.08-6.958 18.786-12.967 37.159-12.967 18.366 0 27.07 6.008 37.148 12.966 10.609 7.323 22.633 15.624 45.682 15.624 23.047 0 35.071-8.3 45.681-15.623 10.08-6.958 18.786-12.967 37.159-12.967 4.143 0 7.5-3.358 7.5-7.5s-3.358-7.5-7.501-7.5z"/><path d="m7.5 331.57c18.374 0 27.079 6.01 37.16 12.968 10.606 7.322 22.629 15.622 45.67 15.622 23.051 0 35.075-8.3 45.685-15.623 8.771-6.054 16.345-11.281 30.118-12.633 4.122-.405 7.137-4.075 6.731-8.197-.404-4.123-4.075-7.141-8.196-6.732-17.636 1.731-28.016 8.896-37.174 15.216-10.081 6.958-18.787 12.968-37.164 12.968-18.366 0-27.07-6.008-37.148-12.966-10.61-7.322-22.633-15.623-45.682-15.623-4.143 0-7.5 3.358-7.5 7.5s3.357 7.5 7.5 7.5z"/><path d="m504.5 413.433c-23.047 0-35.07 8.302-45.679 15.626-10.081 6.959-18.786 12.97-37.158 12.97-18.371 0-27.077-6.011-37.156-12.97-10.609-7.325-22.634-15.626-45.681-15.626-23.046 0-35.069 8.302-45.678 15.626-10.079 6.959-18.784 12.97-37.155 12.97-18.37 0-27.074-6.011-37.153-12.97-10.608-7.324-22.632-15.626-45.677-15.626-23.046 0-35.069 8.302-45.678 15.626-10.079 6.959-18.784 12.97-37.154 12.97s-27.075-6.011-37.154-12.97c-10.608-7.325-22.632-15.626-45.677-15.626-4.143 0-7.5 3.358-7.5 7.5s3.357 7.5 7.5 7.5c18.37 0 27.074 6.01 37.153 12.97 10.608 7.325 22.632 15.627 45.678 15.627s35.069-8.302 45.678-15.626c10.079-6.959 18.784-12.97 37.154-12.97s27.074 6.011 37.153 12.97c10.608 7.324 22.632 15.626 45.677 15.626 23.046 0 35.07-8.302 45.679-15.626 10.079-6.96 18.784-12.97 37.154-12.97 18.372 0 27.077 6.011 37.158 12.97 10.608 7.325 22.632 15.626 45.679 15.626s35.071-8.302 45.681-15.626c10.079-6.959 18.785-12.97 37.156-12.97 4.143 0 7.5-3.358 7.5-7.5s-3.357-7.501-7.5-7.501z"/><path d="m283.5 401.097c0-15.164-12.337-27.5-27.5-27.5s-27.5 12.336-27.5 27.5 12.337 27.5 27.5 27.5 27.5-12.336 27.5-27.5zm-40 0c0-6.893 5.607-12.5 12.5-12.5s12.5 5.607 12.5 12.5-5.607 12.5-12.5 12.5-12.5-5.607-12.5-12.5z"/><path d="m62.831 401.097c0 15.164 12.337 27.5 27.5 27.5s27.5-12.336 27.5-27.5-12.337-27.5-27.5-27.5-27.5 12.337-27.5 27.5zm40 0c0 6.893-5.607 12.5-12.5 12.5s-12.5-5.607-12.5-12.5 5.607-12.5 12.5-12.5 12.5 5.608 12.5 12.5z"/><path d="m449.163 401.097c0-15.164-12.337-27.5-27.5-27.5s-27.5 12.336-27.5 27.5 12.337 27.5 27.5 27.5 27.5-12.336 27.5-27.5zm-40 0c0-6.893 5.607-12.5 12.5-12.5s12.5 5.607 12.5 12.5-5.607 12.5-12.5 12.5-12.5-5.607-12.5-12.5z"/><path d="m150.663 369.501c0 12.407 10.094 22.5 22.5 22.5s22.5-10.093 22.5-22.5-10.094-22.5-22.5-22.5-22.5 10.093-22.5 22.5zm22.5-7.5c4.136 0 7.5 3.364 7.5 7.5s-3.364 7.5-7.5 7.5-7.5-3.364-7.5-7.5 3.364-7.5 7.5-7.5z"/><path d="m361.326 369.501c0-12.407-10.094-22.5-22.5-22.5s-22.5 10.093-22.5 22.5 10.094 22.5 22.5 22.5 22.5-10.094 22.5-22.5zm-30 0c0-4.136 3.364-7.5 7.5-7.5s7.5 3.364 7.5 7.5-3.364 7.5-7.5 7.5-7.5-3.365-7.5-7.5z"/><path d="m504.5 362.001c4.143 0 7.5-3.358 7.5-7.5s-3.357-7.5-7.5-7.5c-12.406 0-22.5 10.093-22.5 22.5s10.094 22.5 22.5 22.5c4.143 0 7.5-3.358 7.5-7.5s-3.357-7.5-7.5-7.5c-4.136 0-7.5-3.364-7.5-7.5s3.364-7.5 7.5-7.5z"/><path d="m7.5 377.001c-4.143 0-7.5 3.358-7.5 7.5s3.357 7.5 7.5 7.5c12.406 0 22.5-10.093 22.5-22.5s-10.094-22.5-22.5-22.5c-4.143 0-7.5 3.358-7.5 7.5s3.357 7.5 7.5 7.5c4.136 0 7.5 3.364 7.5 7.5s-3.364 7.5-7.5 7.5z"/><path d="m193.542 191.202h36.82v36.82c0 4.142 3.357 7.5 7.5 7.5h36.275c4.143 0 7.5-3.358 7.5-7.5v-36.82h36.82c4.143 0 7.5-3.358 7.5-7.5v-36.275c0-4.142-3.357-7.5-7.5-7.5h-36.82v-36.82c0-4.142-3.357-7.5-7.5-7.5h-36.275c-4.143 0-7.5 3.358-7.5 7.5v36.82h-36.82c-4.143 0-7.5 3.358-7.5 7.5v36.275c0 4.142 3.357 7.5 7.5 7.5zm7.5-36.275h36.82c4.143 0 7.5-3.358 7.5-7.5v-36.82h21.275v36.82c0 4.142 3.357 7.5 7.5 7.5h36.82v21.275h-36.82c-4.143 0-7.5 3.358-7.5 7.5v36.82h-21.275v-36.82c0-4.142-3.357-7.5-7.5-7.5h-36.82z"/><path d="m7.5 162.367h15.493v15.494c0 4.142 3.357 7.5 7.5 7.5h28.768c4.143 0 7.5-3.358 7.5-7.5v-15.494h15.494c4.143 0 7.5-3.358 7.5-7.5v-28.767c0-4.142-3.357-7.5-7.5-7.5h-15.494v-15.494c0-4.142-3.357-7.5-7.5-7.5h-28.768c-4.143 0-7.5 3.358-7.5 7.5v15.494h-15.493c-4.143 0-7.5 3.358-7.5 7.5v28.767c0 4.143 3.357 7.5 7.5 7.5zm7.5-28.767h15.493c4.143 0 7.5-3.358 7.5-7.5v-15.494h13.768v15.494c0 4.142 3.357 7.5 7.5 7.5h15.494v13.767h-15.494c-4.143 0-7.5 3.358-7.5 7.5v15.494h-13.768v-15.494c0-4.142-3.357-7.5-7.5-7.5h-15.493z"/><path d="m76.685 41.7h12.5v12.5c0 4.142 3.357 7.5 7.5 7.5s7.5-3.358 7.5-7.5v-12.5h12.5c4.143 0 7.5-3.358 7.5-7.5s-3.357-7.5-7.5-7.5h-12.5v-12.5c0-4.142-3.357-7.5-7.5-7.5s-7.5 3.358-7.5 7.5v12.5h-12.5c-4.143 0-7.5 3.358-7.5 7.5s3.357 7.5 7.5 7.5z"/><path d="m504.5 118.6h-15.493v-15.494c0-4.142-3.357-7.5-7.5-7.5h-28.768c-4.143 0-7.5 3.358-7.5 7.5v15.494h-15.494c-4.143 0-7.5 3.358-7.5 7.5v28.767c0 4.142 3.357 7.5 7.5 7.5h15.494v15.494c0 4.142 3.357 7.5 7.5 7.5h28.768c4.143 0 7.5-3.358 7.5-7.5v-15.494h15.493c4.143 0 7.5-3.358 7.5-7.5v-28.767c0-4.142-3.357-7.5-7.5-7.5zm-7.5 28.767h-15.493c-4.143 0-7.5 3.358-7.5 7.5v15.494h-13.768v-15.494c0-4.142-3.357-7.5-7.5-7.5h-15.494v-13.767h15.494c4.143 0 7.5-3.358 7.5-7.5v-15.494h13.768v15.494c0 4.142 3.357 7.5 7.5 7.5h15.493z"/><path d="m395.315 41.7h12.5v12.5c0 4.142 3.357 7.5 7.5 7.5s7.5-3.358 7.5-7.5v-12.5h12.5c4.143 0 7.5-3.358 7.5-7.5s-3.357-7.5-7.5-7.5h-12.5v-12.5c0-4.142-3.357-7.5-7.5-7.5s-7.5 3.358-7.5 7.5v12.5h-12.5c-4.143 0-7.5 3.358-7.5 7.5s3.358 7.5 7.5 7.5z"/><circle cx="60.33" cy="287.31" r="7.5"/><circle cx="120.33" cy="287.31" r="7.5"/><circle cx="90.33" cy="317.149" r="7.5"/><circle cx="173.16" cy="294.81" r="7.5"/><circle cx="391.67" cy="287.31" r="7.5"/><circle cx="338.826" cy="294.71" r="7.5"/><circle cx="451.67" cy="287.31" r="7.5"/><circle cx="421.67" cy="317.149" r="7.5"/></g><g/><g/><g/><g/><g/><g/><g/><g/><g/><g/><g/><g/><g/><g/><g/></svg>