<svg id="Capa_1" enable-background="new 0 0 512 512" height="512" viewBox="0 0 512 512" width="512" xmlns="http://www.w3.org/2000/svg"><g><path d="m452.331 242.347c-7.132-4.977-16.215-4.823-23.134.386-13.153 9.877-27.574 17.636-42.924 23.116-14.918-15.765-36.01-25.63-59.376-25.63h-23.89c-1.372-11.224-7.469-21.435-16.889-27.957-10.76-7.45-24.496-9.147-36.744-4.541l-38.091 14.323c-27.276-29.922-42.386-68.244-42.643-108.464-.15-22.475 4.201-44.274 12.931-64.793 3.426-8.05 1.39-16.97-5.187-22.727-6.494-5.684-15.486-6.513-22.911-2.11-61.074 36.238-99.301 100.121-102.256 170.887-.173 4.139 3.042 7.634 7.181 7.807 4.148.163 7.634-3.042 7.807-7.181 2.743-65.678 38.229-124.973 94.922-158.612 2.587-1.536 4.624-.165 5.379.496.621.543 2.547 2.551 1.264 5.566-9.538 22.418-14.292 46.228-14.128 70.764.292 45.709 18.122 89.167 50.2 122.364 5.522 5.706 11.491 11.102 17.735 16.032 9.257 7.309 14.565 18.167 14.565 29.791v114.252c-85.75-10.699-155.801-78.793-168.117-164.782-.106-.739-.208-1.479-.303-2.229-.521-4.109-4.274-7.022-8.383-6.498-4.109.521-7.018 4.274-6.498 8.383.105.831.219 1.651.336 2.471 13.357 93.261 89.746 166.976 182.965 177.751v78.993c0 12.017 9.776 21.793 21.793 21.793h35.732c32.618 0 59.154-26.537 59.154-59.155v-6.133h9.606c16.163 0 31.373-8.62 39.694-22.497 2.13-3.552.977-8.159-2.575-10.289-3.553-2.13-8.16-.978-10.29 2.575-5.711 9.524-15.74 15.211-26.829 15.211h-9.606v-62.891c0-4.142-3.357-7.5-7.5-7.5s-7.5 3.358-7.5 7.5v84.023c0 24.347-19.808 44.155-44.154 44.155h-35.732c-3.746 0-6.793-3.047-6.793-6.793v-208.339c0-16.243-7.388-31.392-20.27-41.563-2.688-2.123-5.32-4.339-7.88-6.635l31.663-11.906c7.756-2.916 16.113-1.884 22.927 2.833s10.721 12.176 10.721 20.463v68.232c0 4.142 3.357 7.5 7.5 7.5s7.5-3.358 7.5-7.5v-58.071h23.596c36.825 0 66.785 29.959 66.785 66.785v64.514c0 4.142 3.357 7.5 7.5 7.5s7.5-3.358 7.5-7.5v-36.237c23.789-24.139 41.489-53.853 51.239-86.164 2.492-8.267-.489-16.812-7.592-21.769zm-6.771 17.437c-7.523 24.931-20.144 48.205-36.878 68.224v-6.005c0-16.085-4.687-31.088-12.739-43.75 15.047-5.852 29.228-13.738 42.268-23.531 2.447-1.843 4.688-.666 5.535-.074.836.583 2.684 2.25 1.814 5.136z"/><path d="m298.118 121.8c0 4.142 3.357 7.5 7.5 7.5h19.636l-23.47 37.384c-1.956 3.118-2.064 7.056-.282 10.277 1.781 3.221 5.175 5.222 8.855 5.222h28.46c4.143 0 7.5-3.358 7.5-7.5s-3.357-7.5-7.5-7.5h-19.636l23.468-37.381c1.958-3.118 2.067-7.057.286-10.278s-5.175-5.223-8.856-5.223h-28.461c-4.143-.001-7.5 3.357-7.5 7.499z"/><path d="m263.044 15h19.636l-23.47 37.384c-1.956 3.118-2.064 7.056-.282 10.277 1.781 3.221 5.175 5.222 8.855 5.222h28.46c4.143 0 7.5-3.358 7.5-7.5s-3.357-7.5-7.5-7.5h-19.636l23.468-37.381c1.958-3.118 2.067-7.056.286-10.278s-5.175-5.224-8.857-5.224h-28.461c-4.143 0-7.5 3.358-7.5 7.5s3.358 7.5 7.501 7.5z"/><path d="m394.399 65.505h19.636l-23.468 37.381c-1.958 3.118-2.067 7.056-.286 10.278s5.176 5.224 8.857 5.224h28.46c4.143 0 7.5-3.358 7.5-7.5s-3.357-7.5-7.5-7.5h-19.636l23.468-37.381c1.958-3.118 2.067-7.056.286-10.278s-5.175-5.223-8.856-5.223h-28.461c-4.143 0-7.5 3.358-7.5 7.5s3.357 7.499 7.5 7.499z"/></g></svg>