<?xml version="1.0" encoding="UTF-8"?>
<svg xmlns="http://www.w3.org/2000/svg" id="Layer_3" data-name="Layer 3" viewBox="0 0 64 64" width="512" height="512"><path d="M61.263,55.876a35.959,35.959,0,0,1-37.806-.5A19.442,19.442,0,0,0,20,53.643V51h4a1,1,0,0,0,.807-1.592l-3.756-5.122A6.98,6.98,0,0,0,25,38a69.542,69.542,0,0,1,.7-9.809l.293-2.049-1.98-.284-.293,2.05A71.611,71.611,0,0,0,23,38a4.985,4.985,0,0,1-3.158,4.638l-6.035-8.23a1.039,1.039,0,0,0-1.614,0l-.3.407a22.969,22.969,0,0,1,4.875-8.926l1.937-2.182A17.953,17.953,0,0,0,24,10.929,3.934,3.934,0,0,1,27.929,7H41a2,2,0,0,1,2,2v4a1.993,1.993,0,0,1-1,1.722V10a3,3,0,0,0-3-3V9a1,1,0,0,1,1,1v6a2,2,0,0,1-2,2V12a3,3,0,0,0-3-3v2a1,1,0,0,1,1,1v7a2,2,0,0,1-2,2H32a1,1,0,0,1-1-1V17h3V15H31a3,3,0,0,1-3-3H26a5,5,0,0,0,3,4.576v.041a7.881,7.881,0,0,0-2,5.211,15.178,15.178,0,0,0,.206,2.491A58.655,58.655,0,0,1,28,33.911V36.7l-1.832,2.748,1.664,1.11L29.738,37.7l1.046-.785A9.682,9.682,0,0,1,36.6,35a9.226,9.226,0,0,1,4.111.972l1.766.885a7.071,7.071,0,0,1,3.041,4.854l.49,3.431,1.98-.284-.49-3.43a9.068,9.068,0,0,0-2.966-5.492,11.857,11.857,0,0,1,15.408-.182l2.417,2.015,1.282-1.538-2.418-2.014a13.883,13.883,0,0,0-18.414.568l-1.2-.6A11.313,11.313,0,0,0,36.525,33,11.643,11.643,0,0,0,30,35.014v-1.1a60.551,60.551,0,0,0-.821-9.92A13.282,13.282,0,0,1,29,21.828a5.749,5.749,0,0,1,.106-1.081A3,3,0,0,0,32,23h2a4.005,4.005,0,0,0,3.873-3H38a4.007,4.007,0,0,0,3.9-3.1A4.007,4.007,0,0,0,45,13V9a4,4,0,0,0-4-4H27.929A5.935,5.935,0,0,0,22,10.929a16.012,16.012,0,0,1-4.747,11.407l-1.978,2.225a25,25,0,0,0-6.14,14.017L1.193,49.408A1,1,0,0,0,2,51H6V63H8V50a1,1,0,0,0-1-1H3.974L13,36.691,22.026,49H19a1,1,0,0,0-1,1V63h2V55.8a17.5,17.5,0,0,1,2.383,1.261,37.959,37.959,0,0,0,39.909.526l1.223-.734-1.03-1.714Z"/><path d="M41.67,52.39A12,12,0,0,1,31.305,51l-2.75-1.833-1.11,1.664,2.75,1.833A13.9,13.9,0,0,0,42.3,54.286l4.013-1.338-.632-1.9Z"/><path d="M51.8,47.4l-1.6,1.2a14.13,14.13,0,0,0,8.6,5.38l.4-1.96L59.1,52A12.075,12.075,0,0,1,51.8,47.4Z"/><path d="M39.108,25.452A1,1,0,0,0,40,26h4v5h2V25a1,1,0,0,0-1-1H41.974L51,11.691,60.026,24H57a1,1,0,0,0-1,1v4h2V26h4a1,1,0,0,0,.807-1.592l-11-15a1.039,1.039,0,0,0-1.614,0l-11,15A1,1,0,0,0,39.108,25.452Z"/><path d="M5,18a2,2,0,0,1,2,2,1,1,0,0,0,2,0,2,2,0,0,1,2-2,1,1,0,0,0,0-2,2,2,0,0,1-2-2,1,1,0,0,0-2,0,2,2,0,0,1-2,2,1,1,0,0,0,0,2Zm3-1.357A3.759,3.759,0,0,0,8.357,17,3.759,3.759,0,0,0,8,17.357,3.759,3.759,0,0,0,7.643,17,3.759,3.759,0,0,0,8,16.643Z"/><path d="M11.684,6.95a5.352,5.352,0,0,1,3.368,3.366,1,1,0,0,0,1.9,0,5.361,5.361,0,0,1,3.368-3.369,1,1,0,0,0,0-1.9,5.352,5.352,0,0,1-3.368-3.366,1,1,0,0,0-1.9,0,5.361,5.361,0,0,1-3.368,3.369,1,1,0,0,0,0,1.9ZM16,4.2a7.4,7.4,0,0,0,1.8,1.8,7.4,7.4,0,0,0-1.8,1.8A7.387,7.387,0,0,0,14.2,6,7.387,7.387,0,0,0,16,4.2Z"/></svg>
