<svg id="Layer_1" enable-background="new 0 0 512 512" viewBox="0 0 512 512" xmlns="http://www.w3.org/2000/svg"><path d="m348.9 125.48c-28.65-23.62-67.61-36.94-109.71-37.5-44-.58-88.68 12.89-122.63 36.96-18.14 12.86-32.85 28.31-43.74 45.91-11.73 18.97-18.71 40-20.74 62.51-.54 5.98-.52 11.23-.5 16.3.07 18.04.14 33.62-30.02 72.33-.18.23-.34.47-.49.71-8.04 13.01-9.82 23.29-5.43 31.42 4.37 8.1 13.45 11.12 22.19 12.33-.67 2.97-.5 5.66-.02 7.87.95 4.42 3.49 8.23 6.7 11.26-3.36 4.48-3.78 9.04-3.71 11.45.2 6.85 4.24 13.23 10.77 17.57-6.61 18.52-5.98 32.27 1.88 41.91 11.32 13.87 34.9 16.47 78.24 8.4l7.01 28.89c2.58 10.72 12.1 18.21 23.15 18.21h164.61c8.1 0 15.31-3.85 19.78-10.56 4.49-6.71 5.3-14.85 2.23-22.34 0-.01-.01-.01-.01-.02-29.61-71.65-9.89-99.12 15.07-133.9 18.22-25.38 38.87-54.16 40.21-103.8.01-.24 0-.48-.01-.73-3.08-48.32-22.04-88.14-54.83-115.18zm1.61 210.36c-25.65 35.73-49.87 69.48-16.87 149.34 1.06 2.58.81 5.06-.73 7.37-1.52 2.28-3.69 3.44-6.46 3.44h-164.61c-3.68 0-6.72-2.39-7.58-5.96l-8.82-36.34c-.89-3.65-4.15-6.12-7.77-6.12-.53 0-1.07.05-1.6.16-39.33 8-62.95 7.55-70.21-1.35-5.78-7.09-1.45-21.61 3.21-32.54.87-2.05.85-4.37-.05-6.4-.91-2.03-2.62-3.6-4.72-4.32-5.08-1.74-7.44-4.88-7.49-6.56-.04-1.36 1.92-3.05 4.99-4.3 3.15-1.28 5.15-4.42 4.98-7.83-.17-3.4-2.48-6.32-5.75-7.28-3.07-.9-7.05-3.82-7.57-6.23-.41-1.9 2.32-4.5 3.51-5.52 2.51-2.16 3.43-5.63 2.33-8.75s-4.01-5.23-7.32-5.33l-.81-.02c-5.23-.15-19.13-.53-21.43-4.8-1.01-1.88-.28-6.8 4.74-15.04 33.28-42.83 33.2-61.8 33.12-81.89-.02-4.7-.04-9.57.43-14.8 7.8-86.33 93.92-131.82 170.95-130.8 67.65.9 142.2 37.45 148.74 137.32-1.3 44.52-19.55 69.95-37.21 94.55zm-27.73-163.85c-.48-5.56-3.54-10.35-8.37-13.1-4.81-2.78-10.46-3.04-15.52-.7l-29.44 13.67-18.7-26.59c-3.2-4.53-8.22-7.13-13.77-7.13-5.5 0-10.51 2.58-13.78 7.14l-18.67 26.57-29.46-13.67c-5.01-2.32-10.65-2.07-15.51.7-4.82 2.78-7.86 7.56-8.33 13.08l-3.51 39.04c-2.52 28.35 17.59 61.69 44.83 74.33l32.94 15.28c2.29 1.06 4.7 1.58 7.1 1.58 1.49 0 2.97-.21 4.42-.61 1.44.4 2.92.6 4.4.6 2.4 0 4.81-.53 7.09-1.58l35.54-16.49c25.84-11.96 44.67-46.05 41.97-75.98zm-86.51-17.44c.26-.36.42-.4.72-.4.36 0 .48.06.68.34l20.9 29.71c13.49 19.15 14.25 50.46 1.64 68.37l-22.53 32.05c-.21.29-.32.35-.69.35-.3 0-.46-.04-.67-.34l-20.87-29.72c-13.49-19.15-14.25-50.46-1.67-68.37zm-72.6 57.88 3.52-39.06c.03-.34.1-.45.36-.6.38-.22.51-.19.79-.06l27.59 12.8c-11.26 23.48-8.99 56.76 6.41 78.62l8.43 12-11.49-5.33c-21.24-9.85-37.55-36.59-35.61-58.37zm113.63 57.16-14.07 6.53 10.07-14.33c14.19-20.15 15.54-51.99 4.46-76.12l27.88-12.95c.32-.15.46-.14.8.05.31.18.36.28.39.62l3.23 36.18c2.1 23.34-12.9 50.82-32.76 60.02zm-71.73-224.16c11.72 2.57 20.94 11.79 23.48 23.5.8 3.68 4.05 6.31 7.82 6.31h.01c3.76 0 7.02-2.62 7.82-6.3 2.56-11.72 11.79-20.95 23.51-23.51 3.68-.8 6.3-4.06 6.3-7.83s-2.63-7.02-6.31-7.82c-11.71-2.54-20.93-11.76-23.5-23.48-.8-3.68-4.06-6.3-7.82-6.3h-.01c-3.77 0-7.02 2.63-7.82 6.31-2.54 11.71-11.75 20.92-23.47 23.47-3.68.8-6.31 4.05-6.31 7.82s2.62 7.02 6.3 7.83zm31.32-18.26c2.91 4.01 6.44 7.54 10.45 10.45-4.01 2.91-7.54 6.44-10.45 10.45-2.91-4.01-6.44-7.54-10.45-10.45 4.01-2.91 7.54-6.44 10.45-10.45zm255.5 185.16c-11.73-2.54-20.95-11.76-23.49-23.47-.8-3.68-4.05-6.31-7.82-6.31h-.01c-3.76 0-7.02 2.62-7.82 6.3-2.57 11.72-11.79 20.94-23.5 23.48-3.68.8-6.31 4.05-6.31 7.82s2.62 7.03 6.3 7.83c11.74 2.57 20.97 11.79 23.51 23.5.8 3.68 4.06 6.31 7.83 6.31s7.03-2.63 7.83-6.31c2.54-11.7 11.77-20.93 23.51-23.5 3.68-.8 6.3-4.06 6.3-7.83s-2.65-7.02-6.33-7.82zm-31.32 18.28c-2.91-4.01-6.44-7.54-10.46-10.45 4.01-2.91 7.54-6.44 10.45-10.45 2.91 4.01 6.44 7.54 10.46 10.45-4.01 2.92-7.54 6.45-10.45 10.45z"/></svg>