<svg clip-rule="evenodd" fill-rule="evenodd" height="6.827in" image-rendering="optimizeQuality" shape-rendering="geometricPrecision" text-rendering="geometricPrecision" viewBox="0 0 6.82666 6.82666" width="6.827in" xmlns="http://www.w3.org/2000/svg"><g id="Layer_x0020_1"><g id="_238349936"><path id="_238356776" d="m4.57713 3.95486c-.0160669 0-.0321811-.00569291-.0449724-.0173583-.189831-.173752-.435055-.269307-.690528-.269307h-.508709c-.0368189 0-.0666654-.0298622-.0666654-.0666654 0-.036811.0298465-.0666654.0666654-.0666654l.508709-.00000394c.288862 0 .566055.108059.780516.304165.0271654.0248583.0290551.0670866.00419291.0941693-.0131535.014437-.0311535.0216654-.0492087.0216654zm-4.06075 1.02c-.0368189 0-.0666654-.0297205-.0666654-.0666614v-.21487c0-.638752.519713-1.15846 1.15854-1.15846l.508713-.00000394c.0368189 0 .0666654.0298622.0666654.0666693 0 .0367992-.0298465.0666654-.0666654.0666654h-.508713c-.565299 0-1.02521.459862-1.02521 1.02514v.214862c0 .0369449-.0298465.0666654-.0666614.0666654z"/><path id="_238373240" d="m2.72494 3.32707c-.573819 0-1.04066-.466937-1.04066-1.04069v-.645417c0-.0368071.0298465-.0666654.0666614-.0666654.0368189 0 .0666654.0298622.0666654.0666693v.645409c0 .50028.407028.907366.907335.907366.500319 0 .907346-.407083.907346-.907362v-.645417c0-.0368071.0298465-.0666654.0666654-.0666654.0368228 0 .0666693.0298622.0666693.0666693v.645409c0 .573756-.46685 1.0407-1.04068 1.04069z"/><path id="_238362488" d="m1.75094 2.22583h-.113173c-.17961 0-.325736-.146106-.325736-.325827 0-.179587.146126-.325697.325736-.325697h.113173c.0368189 0 .0666654.0298622.0666654.0666693 0 .0367992-.0298465.0666654-.0666654.0666654h-.113173c-.106091 0-.192394.0863898-.192394.192362 0 .106106.0863031.1925.192394.1925l.113173-.00000394c.0368189 0 .0666654.0298661.0666654.0666693 0 .0368031-.0298465.0666654-.0666654.0666614z"/><path id="_238364360" d="m3.81212 2.22583h-.113169c-.0368189 0-.0666811-.0298543-.0666811-.0666614.00000394-.0368071.0298622-.0666654.0666811-.0666654l.113169-.00000394c.106083 0 .192386-.0863858.192386-.192496.00000394-.10598-.0863031-.192362-.192386-.192362h-.113169c-.0368189 0-.0666811-.0298622-.0666811-.0666654.00000394-.036811.0298622-.0666693.0666811-.0666693h.113169c.17961 0 .325736.14611.325736.325697 0 .179717-.146126.325831-.325736.325827z"/><path id="_238362008" d="m3.88507 1.71819c-.0368071 0-.0666535-.0298504-.0666535-.0666575v-.201531c0-.510551-.41539-.925969-.925945-.925969l-.335043-.00000787c-.510567 0-.925937.415425-.925937.92598v.20152c0 .0368071-.0298504.0666732-.0666693.0666732-.0368189-.00000787-.0666693-.0298583-.0666693-.0666654v-.201531c0-.584169.475193-1.0593 1.05928-1.0593h.335043c.584083 0 1.05926.475138 1.05926 1.05931v.20152c0 .0368071-.0298465.0666732-.0666654.0666654z"/><path id="_238356656" d="m1.78647 1.70847c-.0125157 0-.0253071-.00027559-.0385512-.00083071-.0367756-.00166929-.0652402-.0329173-.0635709-.0697205.00166929-.0366693.032748-.0655591.069622-.0634764.278803.0125039.324417-.131248.368472-.270276.0162205-.051252.0315394-.0995827.0592756-.13611.0122362-.0161102.0310984-.0258346.0513071-.0263898.0200827-.00027559.0395551.00819685.0526378.0236102.0115276.0134724.289429.331807.685362.22389.478555-.130559.766335.194307.778362.208193.0240827.0279134.0210276.0700039-.00682283.0940276-.0278465.0241654-.0699409.0211142-.0940394-.00680315-.00973622-.0111142-.24678-.274724-.642417-.166807-.353945.0965276-.626193-.0861102-.749791-.194583-.00223622.00693701-.00448425.0140276-.00676378.021252-.0435.137358-.115362.364028-.463083.364024z"/><path id="_238344872" d="m2.11697 3.66819c-.0368189 0-.0666811-.0298622-.0666811-.0666654v-.555559c0-.0368071.0298622-.0666654.0666811-.0666654s.0666654.0298622.0666654.0666693v.555547c0 .0368071-.0298465.0666732-.0666654.0666732z"/><path id="_238365176" d="m3.33293 3.66819c-.0368189 0-.0666654-.0298622-.0666654-.0666654v-.555559c0-.0368071.0298465-.0666654.0666654-.0666654.0368228 0 .0666654.0298622.0666654.0666693v.555547c0 .0368071-.0298465.0666732-.0666654.0666732z"/><path id="_238361408" d="m2.72495 3.90166c-.216677 0-.433374-.0823583-.648539-.247217-.0292244-.0225-.0347638-.0643071-.0123622-.0934724.0223898-.029311.0642362-.0348622.0934567-.0123622.381835.292496.753043.2925 1.13488 0 .0292047-.0225039.0710669-.0169449.0934567.0123622.0223898.0291575.0168622.0709724-.012374.0934724-.215154.164858-.431835.24722-.648516.247217z"/><path id="_238354568" d="m1.42908 6.29194c-.0368189 0-.0666654-.0297205-.0666654-.0666693v-1.81222c0-.0369449.0298465-.0666654.0666654-.0666654.036815-.00000394.0666614.0297244.0666614.0666693v1.81222c0 .0369449-.0298465.0666732-.0666614.0666732z"/><path id="_238353392" d="m1.42908 4.97486h-.912701c-.0368189 0-.0666654-.0297205-.0666654-.0666614 0-.036815.0298465-.0666693.0666654-.0666693l.912701-.00000787c.036815 0 .0666614.0298661.0666614.0666772 0 .0369409-.0298465.0666614-.0666614.0666614z"/><path id="_238359488" d="m3.95757 6.29194h-3.38009c-.0368189 0-.0666693-.0297205-.0666693-.0666693v-1.31708c0-.036811.0298504-.0666654.0666693-.0666654.0368189-.00000787.0666654.0298583.0666654.0666693v1.25041h3.31342c.0368189 0 .0666654.0298661.0666654.0666693 0 .0369409-.0298465.0666693-.0666654.0666693z"/><path id="_238349864" d="m4.59687 3.95472c-.655835 0-1.18939.533476-1.18939 1.18931.00000394.655831.533555 1.18944 1.18939 1.18944.655835-.00000394 1.18939-.53361 1.18939-1.18944 0-.655843-.533555-1.18931-1.18939-1.18931zm0 2.51209c-.72935 0-1.32272-.593469-1.32272-1.32278s.593374-1.32264 1.32272-1.32264c.72935-.00000394 1.32272.593339 1.32272 1.32264 0 .729307-.593378 1.32278-1.32272 1.32278z"/><path id="_238343480" d="m4.42773 5.73764h.338268v-.35778c0-.0368071.0298425-.0666654.0666614-.0666654h.357768v-.338335h-.357768c-.0368189 0-.0666654-.0298583-.0666654-.0666614l.00000394-.357783h-.338268v.35778c0 .0368031-.0298465.0666654-.0666693.0666654h-.357748v.338335h.357752c.0368189 0 .0666654.0298622.0666654.0666693v.357776zm.404929.133331h-.471594c-.0368071 0-.0666535-.0298583-.0666535-.0666654v-.357783h-.357764c-.0368189 0-.0666811-.0298543-.0666811-.0666575v-.471669c0-.036811.0298583-.0666654.0666811-.0666654l.357764-.00000787v-.357772c0-.036811.0298465-.0665276.0666496-.0665276l.471598-.00000394c.0368228 0 .0666654.0297244.0666654.0665315l.00000394.357772h.357776c.0368071 0 .0666693.0298661.0666693.0666772v.471661c0 .0368031-.0298622.0666654-.0666693.0666654l-.357776-.00000394v.357783c0 .0368031-.0298504.0666693-.0666693.0666654z"/><path id="_238356224" d="m4.93051.493051c-.192457 0-.349031.156669-.349031.349169.00000394.372776.38089.768335.764736 1.15278.38385-.384449.764752-.780004.764752-1.15278 0-.192504-.156583-.349165-.349043-.349165-.163441-.00000394-.253303.0694449-.356071.275-.0112992.0226378-.0343858.0368071-.0596378.0368071-.025248-.00000394-.0483307-.0141693-.059622-.0368071-.10278-.205559-.192642-.275-.356083-.275004zm.415709 1.66292c-.0170591 0-.034126-.00652362-.0471417-.0195787-.418346-.418339-.850945-.850835-.850945-1.29417 0-.265972.216402-.482358.482374-.482358.204209-.00000394.322264.0930512.415709.241386.0934449-.148335.2115-.241386.415709-.241386.265988-.00000394.482374.216386.482374.482358.00000394.443331-.432594.875835-.850941 1.29417-.0130118.0130551-.0300709.0195827-.0471378.0195787z"/><path id="_238362104" d="m5.34623 1.53361c-.0238189 0-.0458346-.0126339-.0577362-.0333307l-.0914961-.158472h-.155972c-.023811 0-.0458228-.0126378-.0577283-.0333307l-.0530118-.091811-.0529843.0918071c-.0119173.0206929-.0339331.0333346-.0577362.0333346h-.419697c-.0368189 0-.0666654-.0298622-.0666654-.0666654 0-.036811.0298465-.0666654.0666654-.0666654l.381197-.00000394.0914882-.158472c.0119016-.0205512.0339134-.0333307.0577323-.0333307.0238189-.00000394.0458346.0127795.0577362.0333307l.0915039.158472h.155957c.0238189 0 .045815.0127795.0577323.0333346l.0530039.0918031.0529961-.0918031c.0119055-.0205551.0339173-.0333307.0577362-.0333307l.155976-.00000394.0915-.158472c.0119016-.0205512.0339016-.0333307.0577205-.0333307v-.00000394c.0238189 0 .0458307.0127835.057748.0333346l.0914764.158472h.381193c.0368189 0 .0666772.0298622.0666772.0666693.00000394.0367992-.0298583.0666654-.0666772.0666654h-.419681c-.0238189 0-.0458346-.0126378-.0577362-.0333307l-.053-.091811-.053.0918071c-.0119173.0206929-.0339173.0333346-.0577362.0333346h-.155957l-.0914882.158469c-.0119134.0206969-.0339331.0333386-.0577362.0333346z"/><path id="_238368944" d="m5.77828 2.50194h.41028l-.205142-.320976zm.532012.133327h-.653732c-.0243661 0-.0467835-.013189-.0584764-.0345787-.0116929-.0213898-.0108189-.0475.00229134-.0679173l.326878-.511528c.012252-.0191732.0334291-.0306929.0561654-.0306929v-.00000394c.022748 0 .0439291.0115315.0561811.0306969l.326862.511524c.0131102.0204213.0139961.0465315.00230315.0679213-.0117047.0213819-.034126.0345827-.0584724.0345787z"/><path id="_238372544" d="m6.15748 3.60263h-.348138c-.0368189 0-.0666693-.0298543-.0666693-.0666575v-.967366c0-.0368031.0298465-.0666614.0666654-.0666614s.0666654.0298583.0666654.0666654l.00000394.900693h.214803v-.900697c0-.0368031.0298465-.0666614.0666654-.0666614.0368228 0 .0666693.0298583.0666693.0666654v.967358c0 .0368031-.0298504.0666693-.0666654.0666614z"/><path id="_238371392" d="m4.50389 2.50194h.410276l-.205134-.320976zm.532.133327h-.653736c-.0243465 0-.0467638-.013189-.0584724-.0345787-.0116929-.0213898-.0108071-.0475.00230315-.0679173l.326866-.511528c.012248-.0191732.0334252-.0306929.0561772-.0306929l.00000394-.00000394c.0227323 0 .0439134.0115315.0561614.0306969l.326866.511524c.013122.0204213.0139961.0465315.00230315.0679213-.0117087.0213819-.034126.0345827-.0584724.0345787z"/><path id="_238372424" d="m4.88309 3.60263h-.348154c-.0368071 0-.0666535-.0298543-.0666535-.0666575v-.967366c0-.0368031.0298465-.0666614.0666535-.0666614.0368189 0 .0666811.0298583.0666811.0666654v.900693h.214807v-.900697c0-.0368031.0298425-.0666614.0666654-.0666614.0368189 0 .0666654.0298583.0666654.0666654v.967358c0 .0368031-.0298465.0666693-.0666654.0666614z"/></g></g></svg>