<?xml version="1.0" encoding="UTF-8"?>
<svg xmlns="http://www.w3.org/2000/svg" width="512" height="512" viewBox="0 0 128 128"><g><path d="M64,79.148a2.027,2.027,0,1,0,2.027,2.027A2.027,2.027,0,0,0,64,79.148Z"/><circle cx="49.752" cy="74" r="2.027"/><circle cx="78.248" cy="74" r="2.027"/><path d="M104.985,44.289c3.651-5.415,4.729-11.955,3.2-19.465A71.519,71.519,0,0,1,106.546,7a1.75,1.75,0,0,0-3.5,0,74.283,74.283,0,0,0,1.709,18.523c1.226,6.018.561,11.278-1.967,15.675a29.379,29.379,0,0,0-3.345-3.423,18.428,18.428,0,0,0,.9-11.355A78.7,78.7,0,0,1,98.546,7a1.75,1.75,0,0,0-3.5,0,81.49,81.49,0,0,0,1.869,20.119,15.562,15.562,0,0,1-.35,8.4A37.283,37.283,0,0,0,93.337,33.5C85.612,29.2,74.92,26.742,64,26.742S42.388,29.2,34.663,33.5a37.283,37.283,0,0,0-3.228,2.023,15.562,15.562,0,0,1-.35-8.4A81.49,81.49,0,0,0,32.954,7a1.75,1.75,0,0,0-3.5,0,78.7,78.7,0,0,1-1.8,19.42,18.428,18.428,0,0,0,.9,11.355A29.379,29.379,0,0,0,25.212,41.2c-2.528-4.4-3.193-9.657-1.967-15.675A74.283,74.283,0,0,0,24.954,7a1.75,1.75,0,0,0-3.5,0,71.519,71.519,0,0,1-1.639,17.824c-1.529,7.51-.451,14.05,3.2,19.465a27.932,27.932,0,0,0-3.96,14.768c0,19.163,13.834,31.344,25.44,38.19a16.182,16.182,0,0,1,7.72,11.3A75.413,75.413,0,0,1,53.2,121a1.75,1.75,0,0,0,3.5,0,78.827,78.827,0,0,0-1.034-13.03,19.679,19.679,0,0,0-9.394-13.739C35.453,87.85,22.555,76.567,22.555,59.057c0-21.268,22.326-28.815,41.445-28.815s41.445,7.547,41.445,28.815c0,17.51-12.9,28.793-23.718,35.174a19.678,19.678,0,0,0-9.393,13.738A78.74,78.74,0,0,0,71.3,121a1.75,1.75,0,0,0,3.5,0,75.434,75.434,0,0,1,.985-12.45,16.182,16.182,0,0,1,7.72-11.3c11.606-6.846,25.44-19.027,25.44-38.19A27.941,27.941,0,0,0,104.985,44.289Z"/><path d="M80.207,89.3c13.24-8.113,20.238-18.57,20.238-30.241C100.445,35.91,67.73,35.242,64,35.242s-36.445.668-36.445,23.815c0,11.671,7,22.128,20.238,30.241A21.307,21.307,0,0,1,57.87,104.835,128.712,128.712,0,0,1,58.858,121a1.75,1.75,0,0,0,3.5,0,132.311,132.311,0,0,0-1.015-16.606,24.8,24.8,0,0,0-11.722-18.08C38.083,79.243,33.4,71.491,31.786,65a28.52,28.52,0,0,1,13.44-1.97,23.155,23.155,0,0,1,7.642,2.42c3.05,1.395,6.2,2.836,11.132,2.836s8.082-1.441,11.132-2.836a23.154,23.154,0,0,1,7.643-2.42A28.478,28.478,0,0,1,96.224,65C93.772,74.931,85.5,81.949,78.379,86.314a24.8,24.8,0,0,0-11.722,18.08A132.311,132.311,0,0,0,65.642,121a1.75,1.75,0,0,0,3.5,0,128.712,128.712,0,0,1,.988-16.165A21.307,21.307,0,0,1,80.207,89.3Zm2.2-29.748a26.313,26.313,0,0,0-8.73,2.717c-2.834,1.3-5.512,2.519-9.677,2.519s-6.843-1.223-9.677-2.519a26.322,26.322,0,0,0-8.729-2.717,31.655,31.655,0,0,0-14.417,1.919c-.083-.838-.122-1.645-.122-2.412,0-19.744,29.573-20.315,32.945-20.315s32.945.571,32.945,20.315q0,1.231-.116,2.414A31.661,31.661,0,0,0,82.407,59.55Z"/></g></svg>
