<svg id="Weight_Management" viewBox="0 0 64 64" xmlns="http://www.w3.org/2000/svg" data-name="Weight Management"><path d="m50 49c-6.62 0-12-5.38-12-12s5.38-12 12-12 12 5.38 12 12c0 2.3-.66 4.54-1.9 6.47-.3.46-.92.6-1.38.3s-.6-.92-.3-1.38c1.03-1.61 1.58-3.47 1.58-5.39 0-5.51-4.49-10-10-10s-10 4.49-10 10 4.49 10 10 10c2.16 0 4.21-.67 5.94-1.95.45-.33 1.07-.23 1.4.21s.23 1.07-.21 1.4c-2.08 1.53-4.54 2.33-7.12 2.33z"/><path d="m27 24c-6.07 0-11-4.93-11-11s4.93-11 11-11c2.7 0 5.29.99 7.31 2.78.41.37.45 1 .08 1.41s-1 .45-1.41.08c-1.64-1.47-3.77-2.28-5.97-2.28-4.96 0-9 4.04-9 9s4.04 9 9 9 9-4.04 9-9c0-1.31-.29-2.63-.85-3.81-.23-.5-.02-1.1.48-1.33s1.1-.02 1.33.48c.68 1.44 1.04 3.05 1.04 4.65 0 6.07-4.93 11-11 11z"/><path d="m27 24c-6.07 0-11-4.93-11-11s4.93-11 11-11c2.7 0 5.29.99 7.31 2.78.41.37.45 1 .08 1.41s-1 .45-1.41.08c-1.64-1.47-3.77-2.28-5.97-2.28-4.96 0-9 4.04-9 9s4.04 9 9 9 9-4.04 9-9c0-1.31-.29-2.63-.85-3.81-.23-.5-.02-1.1.48-1.33s1.1-.02 1.33.48c.68 1.44 1.04 3.05 1.04 4.65 0 6.07-4.93 11-11 11z"/><path d="m48.17 41.67c-.22 0-.44-.07-.61-.21l-4.12-3.21c-.44-.34-.51-.97-.17-1.4s.97-.52 1.4-.17l3.33 2.59 5.35-6.99c.33-.44.96-.52 1.4-.19.44.34.52.96.19 1.4l-5.96 7.79c-.16.21-.4.35-.67.38-.04 0-.08 0-.13 0z"/><path d="m3 39c-.55 0-1-.45-1-1v-19c0-3.86 3.14-7 7-7h4c.55 0 1 .45 1 1s-.45 1-1 1h-4c-2.76 0-5 2.24-5 5v19c0 .55-.45 1-1 1z"/><path d="m51 23.04c-.55 0-1-.45-1-1v-3.04c0-2.76-2.24-5-5-5h-4c-.55 0-1-.45-1-1s.45-1 1-1h4c3.86 0 7 3.14 7 7v3.04c0 .55-.45 1-1 1z"/><path d="m28 10.18v-3.18c0-.55-.45-1-1-1s-1 .45-1 1v3.18c-1.16.41-2 1.51-2 2.82 0 1.65 1.35 3 3 3s3-1.35 3-3c0-1.3-.84-2.4-2-2.82zm-1 3.82c-.55 0-1-.45-1-1s.45-1 1-1 1 .45 1 1-.45 1-1 1z"/><path d="m51 50.96c-.55 0-1 .45-1 1v3.04c0 2.76-2.24 5-5 5h-17v-31.04c6.76-.43 12.61-5.11 14.42-11.69.15-.53-.17-1.08-.7-1.23s-1.08.16-1.23.7c-1.67 6.04-7.22 10.27-13.5 10.27s-11.83-4.22-13.5-10.27c-.15-.53-.7-.84-1.23-.7-.53.15-.85.7-.7 1.23 1.82 6.59 7.67 11.27 14.42 11.69v31.04h-16.98c-2.76 0-5-2.24-5-5v-13c0-.55-.45-1-1-1s-1 .45-1 1v13c0 3.86 3.14 7 7 7h36c3.86 0 7-3.14 7-7v-3.04c0-.55-.45-1-1-1z"/><path d="m17.18 57c-2.2 0-4.12-1.35-4.67-3.28l-4.31-15.94c-.47-1.74-.1-3.59 1.03-5.06 1.31-1.71 3.46-2.73 5.77-2.73 3.86 0 7 2.82 7 6.29v16.34c0 2.41-2.16 4.37-4.82 4.37zm-2.18-25c-1.69 0-3.25.73-4.18 1.94-.76.99-1 2.17-.69 3.32l4.31 15.92c.3 1.06 1.43 1.81 2.74 1.81 1.55 0 2.82-1.06 2.82-2.37v-16.34c0-2.37-2.24-4.29-5-4.29z"/><path d="m36.82 57c-2.66 0-4.82-1.96-4.82-4.37v-16.34c0-2.23 1.34-4.31 3.49-5.44.49-.25 1.09-.07 1.35.42s.07 1.09-.42 1.35c-1.51.79-2.41 2.16-2.41 3.66v16.34c0 1.31 1.27 2.37 2.82 2.37 1.31 0 2.44-.75 2.74-1.82l1.09-4.01c.14-.53.7-.85 1.23-.7.53.14.85.69.7 1.23l-1.09 4.02c-.54 1.94-2.46 3.29-4.66 3.29z"/></svg>